<svg xmlns="http://www.w3.org/2000/svg" xmlns:xlink="http://www.w3.org/1999/xlink" version="1.1" width="7.500in" height="4.500in" viewBox="0 0 5400 3240">
	<desc>Stata Graph - Graph</desc>
	<rect x="0" y="0" width="5400" height="3240" style="fill:#FFFFFF;stroke:none"/>
	<rect x="0.00" y="0.00" width="5400.00" height="3240.00" style="fill:#FFFFFF"/>
	<rect x="3.24" y="3.24" width="5393.52" height="3233.52" style="fill:none;stroke:#FFFFFF;stroke-width:6.48"/>
	<rect x="493.26" y="573.58" width="4793.34" height="2064.15" style="fill:#FFFFFF"/>
	<rect x="496.50" y="576.82" width="4786.86" height="2057.67" style="fill:none;stroke:#FFFFFF;stroke-width:6.48"/>
	<line x1="493.26" y1="2491.93" x2="558.06" y2="2491.93" style="stroke:#F0F0F0;stroke-width:9.72"/>
	<line x1="590.46" y1="2491.93" x2="655.26" y2="2491.93" style="stroke:#F0F0F0;stroke-width:9.72"/>
	<line x1="687.66" y1="2491.93" x2="752.46" y2="2491.93" style="stroke:#F0F0F0;stroke-width:9.72"/>
	<line x1="784.86" y1="2491.93" x2="849.66" y2="2491.93" style="stroke:#F0F0F0;stroke-width:9.72"/>
	<line x1="882.06" y1="2491.93" x2="946.86" y2="2491.93" style="stroke:#F0F0F0;stroke-width:9.72"/>
	<line x1="979.26" y1="2491.93" x2="1044.06" y2="2491.93" style="stroke:#F0F0F0;stroke-width:9.72"/>
	<line x1="1076.46" y1="2491.93" x2="1141.26" y2="2491.93" style="stroke:#F0F0F0;stroke-width:9.72"/>
	<line x1="1173.66" y1="2491.93" x2="1238.46" y2="2491.93" style="stroke:#F0F0F0;stroke-width:9.72"/>
	<line x1="1270.86" y1="2491.93" x2="1335.66" y2="2491.93" style="stroke:#F0F0F0;stroke-width:9.72"/>
	<line x1="1368.06" y1="2491.93" x2="1432.86" y2="2491.93" style="stroke:#F0F0F0;stroke-width:9.72"/>
	<line x1="1465.26" y1="2491.93" x2="1530.06" y2="2491.93" style="stroke:#F0F0F0;stroke-width:9.72"/>
	<line x1="1562.46" y1="2491.93" x2="1627.26" y2="2491.93" style="stroke:#F0F0F0;stroke-width:9.72"/>
	<line x1="1659.66" y1="2491.93" x2="1724.46" y2="2491.93" style="stroke:#F0F0F0;stroke-width:9.72"/>
	<line x1="1756.86" y1="2491.93" x2="1821.66" y2="2491.93" style="stroke:#F0F0F0;stroke-width:9.72"/>
	<line x1="1854.06" y1="2491.93" x2="1918.86" y2="2491.93" style="stroke:#F0F0F0;stroke-width:9.72"/>
	<line x1="1951.26" y1="2491.93" x2="2016.06" y2="2491.93" style="stroke:#F0F0F0;stroke-width:9.72"/>
	<line x1="2048.46" y1="2491.93" x2="2113.26" y2="2491.93" style="stroke:#F0F0F0;stroke-width:9.72"/>
	<line x1="2145.66" y1="2491.93" x2="2210.46" y2="2491.93" style="stroke:#F0F0F0;stroke-width:9.72"/>
	<line x1="2242.86" y1="2491.93" x2="2307.66" y2="2491.93" style="stroke:#F0F0F0;stroke-width:9.72"/>
	<line x1="2340.06" y1="2491.93" x2="2404.86" y2="2491.93" style="stroke:#F0F0F0;stroke-width:9.72"/>
	<line x1="2437.26" y1="2491.93" x2="2502.06" y2="2491.93" style="stroke:#F0F0F0;stroke-width:9.72"/>
	<line x1="2534.46" y1="2491.93" x2="2599.26" y2="2491.93" style="stroke:#F0F0F0;stroke-width:9.72"/>
	<line x1="2631.66" y1="2491.93" x2="2696.46" y2="2491.93" style="stroke:#F0F0F0;stroke-width:9.72"/>
	<line x1="2728.86" y1="2491.93" x2="2793.66" y2="2491.93" style="stroke:#F0F0F0;stroke-width:9.72"/>
	<line x1="2826.06" y1="2491.93" x2="2890.86" y2="2491.93" style="stroke:#F0F0F0;stroke-width:9.72"/>
	<line x1="2923.26" y1="2491.93" x2="2988.06" y2="2491.93" style="stroke:#F0F0F0;stroke-width:9.72"/>
	<line x1="3020.46" y1="2491.93" x2="3085.26" y2="2491.93" style="stroke:#F0F0F0;stroke-width:9.72"/>
	<line x1="3117.66" y1="2491.93" x2="3182.46" y2="2491.93" style="stroke:#F0F0F0;stroke-width:9.72"/>
	<line x1="3214.86" y1="2491.93" x2="3279.66" y2="2491.93" style="stroke:#F0F0F0;stroke-width:9.72"/>
	<line x1="3312.06" y1="2491.93" x2="3376.86" y2="2491.93" style="stroke:#F0F0F0;stroke-width:9.72"/>
	<line x1="3409.26" y1="2491.93" x2="3474.06" y2="2491.93" style="stroke:#F0F0F0;stroke-width:9.72"/>
	<line x1="3506.46" y1="2491.93" x2="3571.26" y2="2491.93" style="stroke:#F0F0F0;stroke-width:9.72"/>
	<line x1="3603.66" y1="2491.93" x2="3668.46" y2="2491.93" style="stroke:#F0F0F0;stroke-width:9.72"/>
	<line x1="3700.86" y1="2491.93" x2="3765.66" y2="2491.93" style="stroke:#F0F0F0;stroke-width:9.72"/>
	<line x1="3798.06" y1="2491.93" x2="3862.86" y2="2491.93" style="stroke:#F0F0F0;stroke-width:9.72"/>
	<line x1="3895.26" y1="2491.93" x2="3960.06" y2="2491.93" style="stroke:#F0F0F0;stroke-width:9.72"/>
	<line x1="3992.46" y1="2491.93" x2="4057.26" y2="2491.93" style="stroke:#F0F0F0;stroke-width:9.72"/>
	<line x1="4089.66" y1="2491.93" x2="4154.46" y2="2491.93" style="stroke:#F0F0F0;stroke-width:9.72"/>
	<line x1="4186.86" y1="2491.93" x2="4251.66" y2="2491.93" style="stroke:#F0F0F0;stroke-width:9.72"/>
	<line x1="4284.06" y1="2491.93" x2="4348.86" y2="2491.93" style="stroke:#F0F0F0;stroke-width:9.72"/>
	<line x1="4381.26" y1="2491.93" x2="4446.06" y2="2491.93" style="stroke:#F0F0F0;stroke-width:9.72"/>
	<line x1="4478.46" y1="2491.93" x2="4543.26" y2="2491.93" style="stroke:#F0F0F0;stroke-width:9.72"/>
	<line x1="4575.66" y1="2491.93" x2="4640.46" y2="2491.93" style="stroke:#F0F0F0;stroke-width:9.72"/>
	<line x1="4672.86" y1="2491.93" x2="4737.66" y2="2491.93" style="stroke:#F0F0F0;stroke-width:9.72"/>
	<line x1="4770.06" y1="2491.93" x2="4834.86" y2="2491.93" style="stroke:#F0F0F0;stroke-width:9.72"/>
	<line x1="4867.26" y1="2491.93" x2="4932.06" y2="2491.93" style="stroke:#F0F0F0;stroke-width:9.72"/>
	<line x1="4964.46" y1="2491.93" x2="5029.26" y2="2491.93" style="stroke:#F0F0F0;stroke-width:9.72"/>
	<line x1="5061.66" y1="2491.93" x2="5126.46" y2="2491.93" style="stroke:#F0F0F0;stroke-width:9.72"/>
	<line x1="5158.86" y1="2491.93" x2="5223.66" y2="2491.93" style="stroke:#F0F0F0;stroke-width:9.72"/>
	<line x1="5256.06" y1="2491.93" x2="5286.60" y2="2491.93" style="stroke:#F0F0F0;stroke-width:9.72"/>
	<line x1="493.26" y1="2030.06" x2="558.06" y2="2030.06" style="stroke:#F0F0F0;stroke-width:9.72"/>
	<line x1="590.46" y1="2030.06" x2="655.26" y2="2030.06" style="stroke:#F0F0F0;stroke-width:9.72"/>
	<line x1="687.66" y1="2030.06" x2="752.46" y2="2030.06" style="stroke:#F0F0F0;stroke-width:9.72"/>
	<line x1="784.86" y1="2030.06" x2="849.66" y2="2030.06" style="stroke:#F0F0F0;stroke-width:9.72"/>
	<line x1="882.06" y1="2030.06" x2="946.86" y2="2030.06" style="stroke:#F0F0F0;stroke-width:9.72"/>
	<line x1="979.26" y1="2030.06" x2="1044.06" y2="2030.06" style="stroke:#F0F0F0;stroke-width:9.72"/>
	<line x1="1076.46" y1="2030.06" x2="1141.26" y2="2030.06" style="stroke:#F0F0F0;stroke-width:9.72"/>
	<line x1="1173.66" y1="2030.06" x2="1238.46" y2="2030.06" style="stroke:#F0F0F0;stroke-width:9.72"/>
	<line x1="1270.86" y1="2030.06" x2="1335.66" y2="2030.06" style="stroke:#F0F0F0;stroke-width:9.72"/>
	<line x1="1368.06" y1="2030.06" x2="1432.86" y2="2030.06" style="stroke:#F0F0F0;stroke-width:9.72"/>
	<line x1="1465.26" y1="2030.06" x2="1530.06" y2="2030.06" style="stroke:#F0F0F0;stroke-width:9.72"/>
	<line x1="1562.46" y1="2030.06" x2="1627.26" y2="2030.06" style="stroke:#F0F0F0;stroke-width:9.72"/>
	<line x1="1659.66" y1="2030.06" x2="1724.46" y2="2030.06" style="stroke:#F0F0F0;stroke-width:9.72"/>
	<line x1="1756.86" y1="2030.06" x2="1821.66" y2="2030.06" style="stroke:#F0F0F0;stroke-width:9.72"/>
	<line x1="1854.06" y1="2030.06" x2="1918.86" y2="2030.06" style="stroke:#F0F0F0;stroke-width:9.72"/>
	<line x1="1951.26" y1="2030.06" x2="2016.06" y2="2030.06" style="stroke:#F0F0F0;stroke-width:9.72"/>
	<line x1="2048.46" y1="2030.06" x2="2113.26" y2="2030.06" style="stroke:#F0F0F0;stroke-width:9.72"/>
	<line x1="2145.66" y1="2030.06" x2="2210.46" y2="2030.06" style="stroke:#F0F0F0;stroke-width:9.72"/>
	<line x1="2242.86" y1="2030.06" x2="2307.66" y2="2030.06" style="stroke:#F0F0F0;stroke-width:9.72"/>
	<line x1="2340.06" y1="2030.06" x2="2404.86" y2="2030.06" style="stroke:#F0F0F0;stroke-width:9.72"/>
	<line x1="2437.26" y1="2030.06" x2="2502.06" y2="2030.06" style="stroke:#F0F0F0;stroke-width:9.72"/>
	<line x1="2534.46" y1="2030.06" x2="2599.26" y2="2030.06" style="stroke:#F0F0F0;stroke-width:9.72"/>
	<line x1="2631.66" y1="2030.06" x2="2696.46" y2="2030.06" style="stroke:#F0F0F0;stroke-width:9.72"/>
	<line x1="2728.86" y1="2030.06" x2="2793.66" y2="2030.06" style="stroke:#F0F0F0;stroke-width:9.72"/>
	<line x1="2826.06" y1="2030.06" x2="2890.86" y2="2030.06" style="stroke:#F0F0F0;stroke-width:9.72"/>
	<line x1="2923.26" y1="2030.06" x2="2988.06" y2="2030.06" style="stroke:#F0F0F0;stroke-width:9.72"/>
	<line x1="3020.46" y1="2030.06" x2="3085.26" y2="2030.06" style="stroke:#F0F0F0;stroke-width:9.72"/>
	<line x1="3117.66" y1="2030.06" x2="3182.46" y2="2030.06" style="stroke:#F0F0F0;stroke-width:9.72"/>
	<line x1="3214.86" y1="2030.06" x2="3279.66" y2="2030.06" style="stroke:#F0F0F0;stroke-width:9.72"/>
	<line x1="3312.06" y1="2030.06" x2="3376.86" y2="2030.06" style="stroke:#F0F0F0;stroke-width:9.72"/>
	<line x1="3409.26" y1="2030.06" x2="3474.06" y2="2030.06" style="stroke:#F0F0F0;stroke-width:9.72"/>
	<line x1="3506.46" y1="2030.06" x2="3571.26" y2="2030.06" style="stroke:#F0F0F0;stroke-width:9.72"/>
	<line x1="3603.66" y1="2030.06" x2="3668.46" y2="2030.06" style="stroke:#F0F0F0;stroke-width:9.72"/>
	<line x1="3700.86" y1="2030.06" x2="3765.66" y2="2030.06" style="stroke:#F0F0F0;stroke-width:9.72"/>
	<line x1="3798.06" y1="2030.06" x2="3862.86" y2="2030.06" style="stroke:#F0F0F0;stroke-width:9.72"/>
	<line x1="3895.26" y1="2030.06" x2="3960.06" y2="2030.06" style="stroke:#F0F0F0;stroke-width:9.72"/>
	<line x1="3992.46" y1="2030.06" x2="4057.26" y2="2030.06" style="stroke:#F0F0F0;stroke-width:9.72"/>
	<line x1="4089.66" y1="2030.06" x2="4154.46" y2="2030.06" style="stroke:#F0F0F0;stroke-width:9.72"/>
	<line x1="4186.86" y1="2030.06" x2="4251.66" y2="2030.06" style="stroke:#F0F0F0;stroke-width:9.72"/>
	<line x1="4284.06" y1="2030.06" x2="4348.86" y2="2030.06" style="stroke:#F0F0F0;stroke-width:9.72"/>
	<line x1="4381.26" y1="2030.06" x2="4446.06" y2="2030.06" style="stroke:#F0F0F0;stroke-width:9.72"/>
	<line x1="4478.46" y1="2030.06" x2="4543.26" y2="2030.06" style="stroke:#F0F0F0;stroke-width:9.72"/>
	<line x1="4575.66" y1="2030.06" x2="4640.46" y2="2030.06" style="stroke:#F0F0F0;stroke-width:9.72"/>
	<line x1="4672.86" y1="2030.06" x2="4737.66" y2="2030.06" style="stroke:#F0F0F0;stroke-width:9.72"/>
	<line x1="4770.06" y1="2030.06" x2="4834.86" y2="2030.06" style="stroke:#F0F0F0;stroke-width:9.72"/>
	<line x1="4867.26" y1="2030.06" x2="4932.06" y2="2030.06" style="stroke:#F0F0F0;stroke-width:9.72"/>
	<line x1="4964.46" y1="2030.06" x2="5029.26" y2="2030.06" style="stroke:#F0F0F0;stroke-width:9.72"/>
	<line x1="5061.66" y1="2030.06" x2="5126.46" y2="2030.06" style="stroke:#F0F0F0;stroke-width:9.72"/>
	<line x1="5158.86" y1="2030.06" x2="5223.66" y2="2030.06" style="stroke:#F0F0F0;stroke-width:9.72"/>
	<line x1="5256.06" y1="2030.06" x2="5286.60" y2="2030.06" style="stroke:#F0F0F0;stroke-width:9.72"/>
	<line x1="493.26" y1="1568.36" x2="558.06" y2="1568.36" style="stroke:#F0F0F0;stroke-width:9.72"/>
	<line x1="590.46" y1="1568.36" x2="655.26" y2="1568.36" style="stroke:#F0F0F0;stroke-width:9.72"/>
	<line x1="687.66" y1="1568.36" x2="752.46" y2="1568.36" style="stroke:#F0F0F0;stroke-width:9.72"/>
	<line x1="784.86" y1="1568.36" x2="849.66" y2="1568.36" style="stroke:#F0F0F0;stroke-width:9.72"/>
	<line x1="882.06" y1="1568.36" x2="946.86" y2="1568.36" style="stroke:#F0F0F0;stroke-width:9.72"/>
	<line x1="979.26" y1="1568.36" x2="1044.06" y2="1568.36" style="stroke:#F0F0F0;stroke-width:9.72"/>
	<line x1="1076.46" y1="1568.36" x2="1141.26" y2="1568.36" style="stroke:#F0F0F0;stroke-width:9.72"/>
	<line x1="1173.66" y1="1568.36" x2="1238.46" y2="1568.36" style="stroke:#F0F0F0;stroke-width:9.72"/>
	<line x1="1270.86" y1="1568.36" x2="1335.66" y2="1568.36" style="stroke:#F0F0F0;stroke-width:9.72"/>
	<line x1="1368.06" y1="1568.36" x2="1432.86" y2="1568.36" style="stroke:#F0F0F0;stroke-width:9.72"/>
	<line x1="1465.26" y1="1568.36" x2="1530.06" y2="1568.36" style="stroke:#F0F0F0;stroke-width:9.72"/>
	<line x1="1562.46" y1="1568.36" x2="1627.26" y2="1568.36" style="stroke:#F0F0F0;stroke-width:9.72"/>
	<line x1="1659.66" y1="1568.36" x2="1724.46" y2="1568.36" style="stroke:#F0F0F0;stroke-width:9.72"/>
	<line x1="1756.86" y1="1568.36" x2="1821.66" y2="1568.36" style="stroke:#F0F0F0;stroke-width:9.72"/>
	<line x1="1854.06" y1="1568.36" x2="1918.86" y2="1568.36" style="stroke:#F0F0F0;stroke-width:9.72"/>
	<line x1="1951.26" y1="1568.36" x2="2016.06" y2="1568.36" style="stroke:#F0F0F0;stroke-width:9.72"/>
	<line x1="2048.46" y1="1568.36" x2="2113.26" y2="1568.36" style="stroke:#F0F0F0;stroke-width:9.72"/>
	<line x1="2145.66" y1="1568.36" x2="2210.46" y2="1568.36" style="stroke:#F0F0F0;stroke-width:9.72"/>
	<line x1="2242.86" y1="1568.36" x2="2307.66" y2="1568.36" style="stroke:#F0F0F0;stroke-width:9.72"/>
	<line x1="2340.06" y1="1568.36" x2="2404.86" y2="1568.36" style="stroke:#F0F0F0;stroke-width:9.72"/>
	<line x1="2437.26" y1="1568.36" x2="2502.06" y2="1568.36" style="stroke:#F0F0F0;stroke-width:9.72"/>
	<line x1="2534.46" y1="1568.36" x2="2599.26" y2="1568.36" style="stroke:#F0F0F0;stroke-width:9.72"/>
	<line x1="2631.66" y1="1568.36" x2="2696.46" y2="1568.36" style="stroke:#F0F0F0;stroke-width:9.72"/>
	<line x1="2728.86" y1="1568.36" x2="2793.66" y2="1568.36" style="stroke:#F0F0F0;stroke-width:9.72"/>
	<line x1="2826.06" y1="1568.36" x2="2890.86" y2="1568.36" style="stroke:#F0F0F0;stroke-width:9.72"/>
	<line x1="2923.26" y1="1568.36" x2="2988.06" y2="1568.36" style="stroke:#F0F0F0;stroke-width:9.72"/>
	<line x1="3020.46" y1="1568.36" x2="3085.26" y2="1568.36" style="stroke:#F0F0F0;stroke-width:9.72"/>
	<line x1="3117.66" y1="1568.36" x2="3182.46" y2="1568.36" style="stroke:#F0F0F0;stroke-width:9.72"/>
	<line x1="3214.86" y1="1568.36" x2="3279.66" y2="1568.36" style="stroke:#F0F0F0;stroke-width:9.72"/>
	<line x1="3312.06" y1="1568.36" x2="3376.86" y2="1568.36" style="stroke:#F0F0F0;stroke-width:9.72"/>
	<line x1="3409.26" y1="1568.36" x2="3474.06" y2="1568.36" style="stroke:#F0F0F0;stroke-width:9.72"/>
	<line x1="3506.46" y1="1568.36" x2="3571.26" y2="1568.36" style="stroke:#F0F0F0;stroke-width:9.72"/>
	<line x1="3603.66" y1="1568.36" x2="3668.46" y2="1568.36" style="stroke:#F0F0F0;stroke-width:9.72"/>
	<line x1="3700.86" y1="1568.36" x2="3765.66" y2="1568.36" style="stroke:#F0F0F0;stroke-width:9.72"/>
	<line x1="3798.06" y1="1568.36" x2="3862.86" y2="1568.36" style="stroke:#F0F0F0;stroke-width:9.72"/>
	<line x1="3895.26" y1="1568.36" x2="3960.06" y2="1568.36" style="stroke:#F0F0F0;stroke-width:9.72"/>
	<line x1="3992.46" y1="1568.36" x2="4057.26" y2="1568.36" style="stroke:#F0F0F0;stroke-width:9.72"/>
	<line x1="4089.66" y1="1568.36" x2="4154.46" y2="1568.36" style="stroke:#F0F0F0;stroke-width:9.72"/>
	<line x1="4186.86" y1="1568.36" x2="4251.66" y2="1568.36" style="stroke:#F0F0F0;stroke-width:9.72"/>
	<line x1="4284.06" y1="1568.36" x2="4348.86" y2="1568.36" style="stroke:#F0F0F0;stroke-width:9.72"/>
	<line x1="4381.26" y1="1568.36" x2="4446.06" y2="1568.36" style="stroke:#F0F0F0;stroke-width:9.72"/>
	<line x1="4478.46" y1="1568.36" x2="4543.26" y2="1568.36" style="stroke:#F0F0F0;stroke-width:9.72"/>
	<line x1="4575.66" y1="1568.36" x2="4640.46" y2="1568.36" style="stroke:#F0F0F0;stroke-width:9.72"/>
	<line x1="4672.86" y1="1568.36" x2="4737.66" y2="1568.36" style="stroke:#F0F0F0;stroke-width:9.72"/>
	<line x1="4770.06" y1="1568.36" x2="4834.86" y2="1568.36" style="stroke:#F0F0F0;stroke-width:9.72"/>
	<line x1="4867.26" y1="1568.36" x2="4932.06" y2="1568.36" style="stroke:#F0F0F0;stroke-width:9.72"/>
	<line x1="4964.46" y1="1568.36" x2="5029.26" y2="1568.36" style="stroke:#F0F0F0;stroke-width:9.72"/>
	<line x1="5061.66" y1="1568.36" x2="5126.46" y2="1568.36" style="stroke:#F0F0F0;stroke-width:9.72"/>
	<line x1="5158.86" y1="1568.36" x2="5223.66" y2="1568.36" style="stroke:#F0F0F0;stroke-width:9.72"/>
	<line x1="5256.06" y1="1568.36" x2="5286.60" y2="1568.36" style="stroke:#F0F0F0;stroke-width:9.72"/>
	<line x1="493.26" y1="1106.66" x2="558.06" y2="1106.66" style="stroke:#F0F0F0;stroke-width:9.72"/>
	<line x1="590.46" y1="1106.66" x2="655.26" y2="1106.66" style="stroke:#F0F0F0;stroke-width:9.72"/>
	<line x1="687.66" y1="1106.66" x2="752.46" y2="1106.66" style="stroke:#F0F0F0;stroke-width:9.72"/>
	<line x1="784.86" y1="1106.66" x2="849.66" y2="1106.66" style="stroke:#F0F0F0;stroke-width:9.72"/>
	<line x1="882.06" y1="1106.66" x2="946.86" y2="1106.66" style="stroke:#F0F0F0;stroke-width:9.72"/>
	<line x1="979.26" y1="1106.66" x2="1044.06" y2="1106.66" style="stroke:#F0F0F0;stroke-width:9.72"/>
	<line x1="1076.46" y1="1106.66" x2="1141.26" y2="1106.66" style="stroke:#F0F0F0;stroke-width:9.72"/>
	<line x1="1173.66" y1="1106.66" x2="1238.46" y2="1106.66" style="stroke:#F0F0F0;stroke-width:9.72"/>
	<line x1="1270.86" y1="1106.66" x2="1335.66" y2="1106.66" style="stroke:#F0F0F0;stroke-width:9.72"/>
	<line x1="1368.06" y1="1106.66" x2="1432.86" y2="1106.66" style="stroke:#F0F0F0;stroke-width:9.72"/>
	<line x1="1465.26" y1="1106.66" x2="1530.06" y2="1106.66" style="stroke:#F0F0F0;stroke-width:9.72"/>
	<line x1="1562.46" y1="1106.66" x2="1627.26" y2="1106.66" style="stroke:#F0F0F0;stroke-width:9.72"/>
	<line x1="1659.66" y1="1106.66" x2="1724.46" y2="1106.66" style="stroke:#F0F0F0;stroke-width:9.72"/>
	<line x1="1756.86" y1="1106.66" x2="1821.66" y2="1106.66" style="stroke:#F0F0F0;stroke-width:9.72"/>
	<line x1="1854.06" y1="1106.66" x2="1918.86" y2="1106.66" style="stroke:#F0F0F0;stroke-width:9.72"/>
	<line x1="1951.26" y1="1106.66" x2="2016.06" y2="1106.66" style="stroke:#F0F0F0;stroke-width:9.72"/>
	<line x1="2048.46" y1="1106.66" x2="2113.26" y2="1106.66" style="stroke:#F0F0F0;stroke-width:9.72"/>
	<line x1="2145.66" y1="1106.66" x2="2210.46" y2="1106.66" style="stroke:#F0F0F0;stroke-width:9.72"/>
	<line x1="2242.86" y1="1106.66" x2="2307.66" y2="1106.66" style="stroke:#F0F0F0;stroke-width:9.72"/>
	<line x1="2340.06" y1="1106.66" x2="2404.86" y2="1106.66" style="stroke:#F0F0F0;stroke-width:9.72"/>
	<line x1="2437.26" y1="1106.66" x2="2502.06" y2="1106.66" style="stroke:#F0F0F0;stroke-width:9.72"/>
	<line x1="2534.46" y1="1106.66" x2="2599.26" y2="1106.66" style="stroke:#F0F0F0;stroke-width:9.72"/>
	<line x1="2631.66" y1="1106.66" x2="2696.46" y2="1106.66" style="stroke:#F0F0F0;stroke-width:9.72"/>
	<line x1="2728.86" y1="1106.66" x2="2793.66" y2="1106.66" style="stroke:#F0F0F0;stroke-width:9.72"/>
	<line x1="2826.06" y1="1106.66" x2="2890.86" y2="1106.66" style="stroke:#F0F0F0;stroke-width:9.72"/>
	<line x1="2923.26" y1="1106.66" x2="2988.06" y2="1106.66" style="stroke:#F0F0F0;stroke-width:9.72"/>
	<line x1="3020.46" y1="1106.66" x2="3085.26" y2="1106.66" style="stroke:#F0F0F0;stroke-width:9.72"/>
	<line x1="3117.66" y1="1106.66" x2="3182.46" y2="1106.66" style="stroke:#F0F0F0;stroke-width:9.72"/>
	<line x1="3214.86" y1="1106.66" x2="3279.66" y2="1106.66" style="stroke:#F0F0F0;stroke-width:9.72"/>
	<line x1="3312.06" y1="1106.66" x2="3376.86" y2="1106.66" style="stroke:#F0F0F0;stroke-width:9.72"/>
	<line x1="3409.26" y1="1106.66" x2="3474.06" y2="1106.66" style="stroke:#F0F0F0;stroke-width:9.72"/>
	<line x1="3506.46" y1="1106.66" x2="3571.26" y2="1106.66" style="stroke:#F0F0F0;stroke-width:9.72"/>
	<line x1="3603.66" y1="1106.66" x2="3668.46" y2="1106.66" style="stroke:#F0F0F0;stroke-width:9.72"/>
	<line x1="3700.86" y1="1106.66" x2="3765.66" y2="1106.66" style="stroke:#F0F0F0;stroke-width:9.72"/>
	<line x1="3798.06" y1="1106.66" x2="3862.86" y2="1106.66" style="stroke:#F0F0F0;stroke-width:9.72"/>
	<line x1="3895.26" y1="1106.66" x2="3960.06" y2="1106.66" style="stroke:#F0F0F0;stroke-width:9.72"/>
	<line x1="3992.46" y1="1106.66" x2="4057.26" y2="1106.66" style="stroke:#F0F0F0;stroke-width:9.72"/>
	<line x1="4089.66" y1="1106.66" x2="4154.46" y2="1106.66" style="stroke:#F0F0F0;stroke-width:9.72"/>
	<line x1="4186.86" y1="1106.66" x2="4251.66" y2="1106.66" style="stroke:#F0F0F0;stroke-width:9.72"/>
	<line x1="4284.06" y1="1106.66" x2="4348.86" y2="1106.66" style="stroke:#F0F0F0;stroke-width:9.72"/>
	<line x1="4381.26" y1="1106.66" x2="4446.06" y2="1106.66" style="stroke:#F0F0F0;stroke-width:9.72"/>
	<line x1="4478.46" y1="1106.66" x2="4543.26" y2="1106.66" style="stroke:#F0F0F0;stroke-width:9.72"/>
	<line x1="4575.66" y1="1106.66" x2="4640.46" y2="1106.66" style="stroke:#F0F0F0;stroke-width:9.72"/>
	<line x1="4672.86" y1="1106.66" x2="4737.66" y2="1106.66" style="stroke:#F0F0F0;stroke-width:9.72"/>
	<line x1="4770.06" y1="1106.66" x2="4834.86" y2="1106.66" style="stroke:#F0F0F0;stroke-width:9.72"/>
	<line x1="4867.26" y1="1106.66" x2="4932.06" y2="1106.66" style="stroke:#F0F0F0;stroke-width:9.72"/>
	<line x1="4964.46" y1="1106.66" x2="5029.26" y2="1106.66" style="stroke:#F0F0F0;stroke-width:9.72"/>
	<line x1="5061.66" y1="1106.66" x2="5126.46" y2="1106.66" style="stroke:#F0F0F0;stroke-width:9.72"/>
	<line x1="5158.86" y1="1106.66" x2="5223.66" y2="1106.66" style="stroke:#F0F0F0;stroke-width:9.72"/>
	<line x1="5256.06" y1="1106.66" x2="5286.60" y2="1106.66" style="stroke:#F0F0F0;stroke-width:9.72"/>
	<line x1="493.26" y1="644.96" x2="558.06" y2="644.96" style="stroke:#F0F0F0;stroke-width:9.72"/>
	<line x1="590.46" y1="644.96" x2="655.26" y2="644.96" style="stroke:#F0F0F0;stroke-width:9.72"/>
	<line x1="687.66" y1="644.96" x2="752.46" y2="644.96" style="stroke:#F0F0F0;stroke-width:9.72"/>
	<line x1="784.86" y1="644.96" x2="849.66" y2="644.96" style="stroke:#F0F0F0;stroke-width:9.72"/>
	<line x1="882.06" y1="644.96" x2="946.86" y2="644.96" style="stroke:#F0F0F0;stroke-width:9.72"/>
	<line x1="979.26" y1="644.96" x2="1044.06" y2="644.96" style="stroke:#F0F0F0;stroke-width:9.72"/>
	<line x1="1076.46" y1="644.96" x2="1141.26" y2="644.96" style="stroke:#F0F0F0;stroke-width:9.72"/>
	<line x1="1173.66" y1="644.96" x2="1238.46" y2="644.96" style="stroke:#F0F0F0;stroke-width:9.72"/>
	<line x1="1270.86" y1="644.96" x2="1335.66" y2="644.96" style="stroke:#F0F0F0;stroke-width:9.72"/>
	<line x1="1368.06" y1="644.96" x2="1432.86" y2="644.96" style="stroke:#F0F0F0;stroke-width:9.72"/>
	<line x1="1465.26" y1="644.96" x2="1530.06" y2="644.96" style="stroke:#F0F0F0;stroke-width:9.72"/>
	<line x1="1562.46" y1="644.96" x2="1627.26" y2="644.96" style="stroke:#F0F0F0;stroke-width:9.72"/>
	<line x1="1659.66" y1="644.96" x2="1724.46" y2="644.96" style="stroke:#F0F0F0;stroke-width:9.72"/>
	<line x1="1756.86" y1="644.96" x2="1821.66" y2="644.96" style="stroke:#F0F0F0;stroke-width:9.72"/>
	<line x1="1854.06" y1="644.96" x2="1918.86" y2="644.96" style="stroke:#F0F0F0;stroke-width:9.72"/>
	<line x1="1951.26" y1="644.96" x2="2016.06" y2="644.96" style="stroke:#F0F0F0;stroke-width:9.72"/>
	<line x1="2048.46" y1="644.96" x2="2113.26" y2="644.96" style="stroke:#F0F0F0;stroke-width:9.72"/>
	<line x1="2145.66" y1="644.96" x2="2210.46" y2="644.96" style="stroke:#F0F0F0;stroke-width:9.72"/>
	<line x1="2242.86" y1="644.96" x2="2307.66" y2="644.96" style="stroke:#F0F0F0;stroke-width:9.72"/>
	<line x1="2340.06" y1="644.96" x2="2404.86" y2="644.96" style="stroke:#F0F0F0;stroke-width:9.72"/>
	<line x1="2437.26" y1="644.96" x2="2502.06" y2="644.96" style="stroke:#F0F0F0;stroke-width:9.72"/>
	<line x1="2534.46" y1="644.96" x2="2599.26" y2="644.96" style="stroke:#F0F0F0;stroke-width:9.72"/>
	<line x1="2631.66" y1="644.96" x2="2696.46" y2="644.96" style="stroke:#F0F0F0;stroke-width:9.72"/>
	<line x1="2728.86" y1="644.96" x2="2793.66" y2="644.96" style="stroke:#F0F0F0;stroke-width:9.72"/>
	<line x1="2826.06" y1="644.96" x2="2890.86" y2="644.96" style="stroke:#F0F0F0;stroke-width:9.72"/>
	<line x1="2923.26" y1="644.96" x2="2988.06" y2="644.96" style="stroke:#F0F0F0;stroke-width:9.72"/>
	<line x1="3020.46" y1="644.96" x2="3085.26" y2="644.96" style="stroke:#F0F0F0;stroke-width:9.72"/>
	<line x1="3117.66" y1="644.96" x2="3182.46" y2="644.96" style="stroke:#F0F0F0;stroke-width:9.72"/>
	<line x1="3214.86" y1="644.96" x2="3279.66" y2="644.96" style="stroke:#F0F0F0;stroke-width:9.72"/>
	<line x1="3312.06" y1="644.96" x2="3376.86" y2="644.96" style="stroke:#F0F0F0;stroke-width:9.72"/>
	<line x1="3409.26" y1="644.96" x2="3474.06" y2="644.96" style="stroke:#F0F0F0;stroke-width:9.72"/>
	<line x1="3506.46" y1="644.96" x2="3571.26" y2="644.96" style="stroke:#F0F0F0;stroke-width:9.72"/>
	<line x1="3603.66" y1="644.96" x2="3668.46" y2="644.96" style="stroke:#F0F0F0;stroke-width:9.72"/>
	<line x1="3700.86" y1="644.96" x2="3765.66" y2="644.96" style="stroke:#F0F0F0;stroke-width:9.72"/>
	<line x1="3798.06" y1="644.96" x2="3862.86" y2="644.96" style="stroke:#F0F0F0;stroke-width:9.72"/>
	<line x1="3895.26" y1="644.96" x2="3960.06" y2="644.96" style="stroke:#F0F0F0;stroke-width:9.72"/>
	<line x1="3992.46" y1="644.96" x2="4057.26" y2="644.96" style="stroke:#F0F0F0;stroke-width:9.72"/>
	<line x1="4089.66" y1="644.96" x2="4154.46" y2="644.96" style="stroke:#F0F0F0;stroke-width:9.72"/>
	<line x1="4186.86" y1="644.96" x2="4251.66" y2="644.96" style="stroke:#F0F0F0;stroke-width:9.72"/>
	<line x1="4284.06" y1="644.96" x2="4348.86" y2="644.96" style="stroke:#F0F0F0;stroke-width:9.72"/>
	<line x1="4381.26" y1="644.96" x2="4446.06" y2="644.96" style="stroke:#F0F0F0;stroke-width:9.72"/>
	<line x1="4478.46" y1="644.96" x2="4543.26" y2="644.96" style="stroke:#F0F0F0;stroke-width:9.72"/>
	<line x1="4575.66" y1="644.96" x2="4640.46" y2="644.96" style="stroke:#F0F0F0;stroke-width:9.72"/>
	<line x1="4672.86" y1="644.96" x2="4737.66" y2="644.96" style="stroke:#F0F0F0;stroke-width:9.72"/>
	<line x1="4770.06" y1="644.96" x2="4834.86" y2="644.96" style="stroke:#F0F0F0;stroke-width:9.72"/>
	<line x1="4867.26" y1="644.96" x2="4932.06" y2="644.96" style="stroke:#F0F0F0;stroke-width:9.72"/>
	<line x1="4964.46" y1="644.96" x2="5029.26" y2="644.96" style="stroke:#F0F0F0;stroke-width:9.72"/>
	<line x1="5061.66" y1="644.96" x2="5126.46" y2="644.96" style="stroke:#F0F0F0;stroke-width:9.72"/>
	<line x1="5158.86" y1="644.96" x2="5223.66" y2="644.96" style="stroke:#F0F0F0;stroke-width:9.72"/>
	<line x1="5256.06" y1="644.96" x2="5286.60" y2="644.96" style="stroke:#F0F0F0;stroke-width:9.72"/>
	<line x1="564.47" y1="2637.73" x2="564.47" y2="2572.93" style="stroke:#F0F0F0;stroke-width:9.72"/>
	<line x1="564.47" y1="2540.53" x2="564.47" y2="2475.73" style="stroke:#F0F0F0;stroke-width:9.72"/>
	<line x1="564.47" y1="2443.33" x2="564.47" y2="2378.53" style="stroke:#F0F0F0;stroke-width:9.72"/>
	<line x1="564.47" y1="2346.13" x2="564.47" y2="2281.33" style="stroke:#F0F0F0;stroke-width:9.72"/>
	<line x1="564.47" y1="2248.93" x2="564.47" y2="2184.13" style="stroke:#F0F0F0;stroke-width:9.72"/>
	<line x1="564.47" y1="2151.73" x2="564.47" y2="2086.93" style="stroke:#F0F0F0;stroke-width:9.72"/>
	<line x1="564.47" y1="2054.53" x2="564.47" y2="1989.73" style="stroke:#F0F0F0;stroke-width:9.72"/>
	<line x1="564.47" y1="1957.33" x2="564.47" y2="1892.53" style="stroke:#F0F0F0;stroke-width:9.72"/>
	<line x1="564.47" y1="1860.13" x2="564.47" y2="1795.33" style="stroke:#F0F0F0;stroke-width:9.72"/>
	<line x1="564.47" y1="1762.93" x2="564.47" y2="1698.13" style="stroke:#F0F0F0;stroke-width:9.72"/>
	<line x1="564.47" y1="1665.73" x2="564.47" y2="1600.93" style="stroke:#F0F0F0;stroke-width:9.72"/>
	<line x1="564.47" y1="1568.53" x2="564.47" y2="1503.73" style="stroke:#F0F0F0;stroke-width:9.72"/>
	<line x1="564.47" y1="1471.33" x2="564.47" y2="1406.53" style="stroke:#F0F0F0;stroke-width:9.72"/>
	<line x1="564.47" y1="1374.13" x2="564.47" y2="1309.33" style="stroke:#F0F0F0;stroke-width:9.72"/>
	<line x1="564.47" y1="1276.93" x2="564.47" y2="1212.13" style="stroke:#F0F0F0;stroke-width:9.72"/>
	<line x1="564.47" y1="1179.73" x2="564.47" y2="1114.93" style="stroke:#F0F0F0;stroke-width:9.72"/>
	<line x1="564.47" y1="1082.53" x2="564.47" y2="1017.73" style="stroke:#F0F0F0;stroke-width:9.72"/>
	<line x1="564.47" y1="985.33" x2="564.47" y2="920.53" style="stroke:#F0F0F0;stroke-width:9.72"/>
	<line x1="564.47" y1="888.13" x2="564.47" y2="823.33" style="stroke:#F0F0F0;stroke-width:9.72"/>
	<line x1="564.47" y1="790.93" x2="564.47" y2="726.13" style="stroke:#F0F0F0;stroke-width:9.72"/>
	<line x1="564.47" y1="693.73" x2="564.47" y2="628.93" style="stroke:#F0F0F0;stroke-width:9.72"/>
	<line x1="564.47" y1="596.53" x2="564.47" y2="573.58" style="stroke:#F0F0F0;stroke-width:9.72"/>
	<line x1="1494.62" y1="2637.73" x2="1494.62" y2="2572.93" style="stroke:#F0F0F0;stroke-width:9.72"/>
	<line x1="1494.62" y1="2540.53" x2="1494.62" y2="2475.73" style="stroke:#F0F0F0;stroke-width:9.72"/>
	<line x1="1494.62" y1="2443.33" x2="1494.62" y2="2378.53" style="stroke:#F0F0F0;stroke-width:9.72"/>
	<line x1="1494.62" y1="2346.13" x2="1494.62" y2="2281.33" style="stroke:#F0F0F0;stroke-width:9.72"/>
	<line x1="1494.62" y1="2248.93" x2="1494.62" y2="2184.13" style="stroke:#F0F0F0;stroke-width:9.72"/>
	<line x1="1494.62" y1="2151.73" x2="1494.62" y2="2086.93" style="stroke:#F0F0F0;stroke-width:9.72"/>
	<line x1="1494.62" y1="2054.53" x2="1494.62" y2="1989.73" style="stroke:#F0F0F0;stroke-width:9.72"/>
	<line x1="1494.62" y1="1957.33" x2="1494.62" y2="1892.53" style="stroke:#F0F0F0;stroke-width:9.72"/>
	<line x1="1494.62" y1="1860.13" x2="1494.62" y2="1795.33" style="stroke:#F0F0F0;stroke-width:9.72"/>
	<line x1="1494.62" y1="1762.93" x2="1494.62" y2="1698.13" style="stroke:#F0F0F0;stroke-width:9.72"/>
	<line x1="1494.62" y1="1665.73" x2="1494.62" y2="1600.93" style="stroke:#F0F0F0;stroke-width:9.72"/>
	<line x1="1494.62" y1="1568.53" x2="1494.62" y2="1503.73" style="stroke:#F0F0F0;stroke-width:9.72"/>
	<line x1="1494.62" y1="1471.33" x2="1494.62" y2="1406.53" style="stroke:#F0F0F0;stroke-width:9.72"/>
	<line x1="1494.62" y1="1374.13" x2="1494.62" y2="1309.33" style="stroke:#F0F0F0;stroke-width:9.72"/>
	<line x1="1494.62" y1="1276.93" x2="1494.62" y2="1212.13" style="stroke:#F0F0F0;stroke-width:9.72"/>
	<line x1="1494.62" y1="1179.73" x2="1494.62" y2="1114.93" style="stroke:#F0F0F0;stroke-width:9.72"/>
	<line x1="1494.62" y1="1082.53" x2="1494.62" y2="1017.73" style="stroke:#F0F0F0;stroke-width:9.72"/>
	<line x1="1494.62" y1="985.33" x2="1494.62" y2="920.53" style="stroke:#F0F0F0;stroke-width:9.72"/>
	<line x1="1494.62" y1="888.13" x2="1494.62" y2="823.33" style="stroke:#F0F0F0;stroke-width:9.72"/>
	<line x1="1494.62" y1="790.93" x2="1494.62" y2="726.13" style="stroke:#F0F0F0;stroke-width:9.72"/>
	<line x1="1494.62" y1="693.73" x2="1494.62" y2="628.93" style="stroke:#F0F0F0;stroke-width:9.72"/>
	<line x1="1494.62" y1="596.53" x2="1494.62" y2="573.58" style="stroke:#F0F0F0;stroke-width:9.72"/>
	<line x1="2424.77" y1="2637.73" x2="2424.77" y2="2572.93" style="stroke:#F0F0F0;stroke-width:9.72"/>
	<line x1="2424.77" y1="2540.53" x2="2424.77" y2="2475.73" style="stroke:#F0F0F0;stroke-width:9.72"/>
	<line x1="2424.77" y1="2443.33" x2="2424.77" y2="2378.53" style="stroke:#F0F0F0;stroke-width:9.72"/>
	<line x1="2424.77" y1="2346.13" x2="2424.77" y2="2281.33" style="stroke:#F0F0F0;stroke-width:9.72"/>
	<line x1="2424.77" y1="2248.93" x2="2424.77" y2="2184.13" style="stroke:#F0F0F0;stroke-width:9.72"/>
	<line x1="2424.77" y1="2151.73" x2="2424.77" y2="2086.93" style="stroke:#F0F0F0;stroke-width:9.72"/>
	<line x1="2424.77" y1="2054.53" x2="2424.77" y2="1989.73" style="stroke:#F0F0F0;stroke-width:9.72"/>
	<line x1="2424.77" y1="1957.33" x2="2424.77" y2="1892.53" style="stroke:#F0F0F0;stroke-width:9.72"/>
	<line x1="2424.77" y1="1860.13" x2="2424.77" y2="1795.33" style="stroke:#F0F0F0;stroke-width:9.72"/>
	<line x1="2424.77" y1="1762.93" x2="2424.77" y2="1698.13" style="stroke:#F0F0F0;stroke-width:9.72"/>
	<line x1="2424.77" y1="1665.73" x2="2424.77" y2="1600.93" style="stroke:#F0F0F0;stroke-width:9.72"/>
	<line x1="2424.77" y1="1568.53" x2="2424.77" y2="1503.73" style="stroke:#F0F0F0;stroke-width:9.72"/>
	<line x1="2424.77" y1="1471.33" x2="2424.77" y2="1406.53" style="stroke:#F0F0F0;stroke-width:9.72"/>
	<line x1="2424.77" y1="1374.13" x2="2424.77" y2="1309.33" style="stroke:#F0F0F0;stroke-width:9.72"/>
	<line x1="2424.77" y1="1276.93" x2="2424.77" y2="1212.13" style="stroke:#F0F0F0;stroke-width:9.72"/>
	<line x1="2424.77" y1="1179.73" x2="2424.77" y2="1114.93" style="stroke:#F0F0F0;stroke-width:9.72"/>
	<line x1="2424.77" y1="1082.53" x2="2424.77" y2="1017.73" style="stroke:#F0F0F0;stroke-width:9.72"/>
	<line x1="2424.77" y1="985.33" x2="2424.77" y2="920.53" style="stroke:#F0F0F0;stroke-width:9.72"/>
	<line x1="2424.77" y1="888.13" x2="2424.77" y2="823.33" style="stroke:#F0F0F0;stroke-width:9.72"/>
	<line x1="2424.77" y1="790.93" x2="2424.77" y2="726.13" style="stroke:#F0F0F0;stroke-width:9.72"/>
	<line x1="2424.77" y1="693.73" x2="2424.77" y2="628.93" style="stroke:#F0F0F0;stroke-width:9.72"/>
	<line x1="2424.77" y1="596.53" x2="2424.77" y2="573.58" style="stroke:#F0F0F0;stroke-width:9.72"/>
	<line x1="3354.92" y1="2637.73" x2="3354.92" y2="2572.93" style="stroke:#F0F0F0;stroke-width:9.72"/>
	<line x1="3354.92" y1="2540.53" x2="3354.92" y2="2475.73" style="stroke:#F0F0F0;stroke-width:9.72"/>
	<line x1="3354.92" y1="2443.33" x2="3354.92" y2="2378.53" style="stroke:#F0F0F0;stroke-width:9.72"/>
	<line x1="3354.92" y1="2346.13" x2="3354.92" y2="2281.33" style="stroke:#F0F0F0;stroke-width:9.72"/>
	<line x1="3354.92" y1="2248.93" x2="3354.92" y2="2184.13" style="stroke:#F0F0F0;stroke-width:9.72"/>
	<line x1="3354.92" y1="2151.73" x2="3354.92" y2="2086.93" style="stroke:#F0F0F0;stroke-width:9.72"/>
	<line x1="3354.92" y1="2054.53" x2="3354.92" y2="1989.73" style="stroke:#F0F0F0;stroke-width:9.72"/>
	<line x1="3354.92" y1="1957.33" x2="3354.92" y2="1892.53" style="stroke:#F0F0F0;stroke-width:9.72"/>
	<line x1="3354.92" y1="1860.13" x2="3354.92" y2="1795.33" style="stroke:#F0F0F0;stroke-width:9.72"/>
	<line x1="3354.92" y1="1762.93" x2="3354.92" y2="1698.13" style="stroke:#F0F0F0;stroke-width:9.72"/>
	<line x1="3354.92" y1="1665.73" x2="3354.92" y2="1600.93" style="stroke:#F0F0F0;stroke-width:9.72"/>
	<line x1="3354.92" y1="1568.53" x2="3354.92" y2="1503.73" style="stroke:#F0F0F0;stroke-width:9.72"/>
	<line x1="3354.92" y1="1471.33" x2="3354.92" y2="1406.53" style="stroke:#F0F0F0;stroke-width:9.72"/>
	<line x1="3354.92" y1="1374.13" x2="3354.92" y2="1309.33" style="stroke:#F0F0F0;stroke-width:9.72"/>
	<line x1="3354.92" y1="1276.93" x2="3354.92" y2="1212.13" style="stroke:#F0F0F0;stroke-width:9.72"/>
	<line x1="3354.92" y1="1179.73" x2="3354.92" y2="1114.93" style="stroke:#F0F0F0;stroke-width:9.72"/>
	<line x1="3354.92" y1="1082.53" x2="3354.92" y2="1017.73" style="stroke:#F0F0F0;stroke-width:9.72"/>
	<line x1="3354.92" y1="985.33" x2="3354.92" y2="920.53" style="stroke:#F0F0F0;stroke-width:9.72"/>
	<line x1="3354.92" y1="888.13" x2="3354.92" y2="823.33" style="stroke:#F0F0F0;stroke-width:9.72"/>
	<line x1="3354.92" y1="790.93" x2="3354.92" y2="726.13" style="stroke:#F0F0F0;stroke-width:9.72"/>
	<line x1="3354.92" y1="693.73" x2="3354.92" y2="628.93" style="stroke:#F0F0F0;stroke-width:9.72"/>
	<line x1="3354.92" y1="596.53" x2="3354.92" y2="573.58" style="stroke:#F0F0F0;stroke-width:9.72"/>
	<line x1="4285.07" y1="2637.73" x2="4285.07" y2="2572.93" style="stroke:#F0F0F0;stroke-width:9.72"/>
	<line x1="4285.07" y1="2540.53" x2="4285.07" y2="2475.73" style="stroke:#F0F0F0;stroke-width:9.72"/>
	<line x1="4285.07" y1="2443.33" x2="4285.07" y2="2378.53" style="stroke:#F0F0F0;stroke-width:9.72"/>
	<line x1="4285.07" y1="2346.13" x2="4285.07" y2="2281.33" style="stroke:#F0F0F0;stroke-width:9.72"/>
	<line x1="4285.07" y1="2248.93" x2="4285.07" y2="2184.13" style="stroke:#F0F0F0;stroke-width:9.72"/>
	<line x1="4285.07" y1="2151.73" x2="4285.07" y2="2086.93" style="stroke:#F0F0F0;stroke-width:9.72"/>
	<line x1="4285.07" y1="2054.53" x2="4285.07" y2="1989.73" style="stroke:#F0F0F0;stroke-width:9.72"/>
	<line x1="4285.07" y1="1957.33" x2="4285.07" y2="1892.53" style="stroke:#F0F0F0;stroke-width:9.72"/>
	<line x1="4285.07" y1="1860.13" x2="4285.07" y2="1795.33" style="stroke:#F0F0F0;stroke-width:9.72"/>
	<line x1="4285.07" y1="1762.93" x2="4285.07" y2="1698.13" style="stroke:#F0F0F0;stroke-width:9.72"/>
	<line x1="4285.07" y1="1665.73" x2="4285.07" y2="1600.93" style="stroke:#F0F0F0;stroke-width:9.72"/>
	<line x1="4285.07" y1="1568.53" x2="4285.07" y2="1503.73" style="stroke:#F0F0F0;stroke-width:9.72"/>
	<line x1="4285.07" y1="1471.33" x2="4285.07" y2="1406.53" style="stroke:#F0F0F0;stroke-width:9.72"/>
	<line x1="4285.07" y1="1374.13" x2="4285.07" y2="1309.33" style="stroke:#F0F0F0;stroke-width:9.72"/>
	<line x1="4285.07" y1="1276.93" x2="4285.07" y2="1212.13" style="stroke:#F0F0F0;stroke-width:9.72"/>
	<line x1="4285.07" y1="1179.73" x2="4285.07" y2="1114.93" style="stroke:#F0F0F0;stroke-width:9.72"/>
	<line x1="4285.07" y1="1082.53" x2="4285.07" y2="1017.73" style="stroke:#F0F0F0;stroke-width:9.72"/>
	<line x1="4285.07" y1="985.33" x2="4285.07" y2="920.53" style="stroke:#F0F0F0;stroke-width:9.72"/>
	<line x1="4285.07" y1="888.13" x2="4285.07" y2="823.33" style="stroke:#F0F0F0;stroke-width:9.72"/>
	<line x1="4285.07" y1="790.93" x2="4285.07" y2="726.13" style="stroke:#F0F0F0;stroke-width:9.72"/>
	<line x1="4285.07" y1="693.73" x2="4285.07" y2="628.93" style="stroke:#F0F0F0;stroke-width:9.72"/>
	<line x1="4285.07" y1="596.53" x2="4285.07" y2="573.58" style="stroke:#F0F0F0;stroke-width:9.72"/>
	<line x1="5215.39" y1="2637.73" x2="5215.39" y2="2572.93" style="stroke:#F0F0F0;stroke-width:9.72"/>
	<line x1="5215.39" y1="2540.53" x2="5215.39" y2="2475.73" style="stroke:#F0F0F0;stroke-width:9.72"/>
	<line x1="5215.39" y1="2443.33" x2="5215.39" y2="2378.53" style="stroke:#F0F0F0;stroke-width:9.72"/>
	<line x1="5215.39" y1="2346.13" x2="5215.39" y2="2281.33" style="stroke:#F0F0F0;stroke-width:9.72"/>
	<line x1="5215.39" y1="2248.93" x2="5215.39" y2="2184.13" style="stroke:#F0F0F0;stroke-width:9.72"/>
	<line x1="5215.39" y1="2151.73" x2="5215.39" y2="2086.93" style="stroke:#F0F0F0;stroke-width:9.72"/>
	<line x1="5215.39" y1="2054.53" x2="5215.39" y2="1989.73" style="stroke:#F0F0F0;stroke-width:9.72"/>
	<line x1="5215.39" y1="1957.33" x2="5215.39" y2="1892.53" style="stroke:#F0F0F0;stroke-width:9.72"/>
	<line x1="5215.39" y1="1860.13" x2="5215.39" y2="1795.33" style="stroke:#F0F0F0;stroke-width:9.72"/>
	<line x1="5215.39" y1="1762.93" x2="5215.39" y2="1698.13" style="stroke:#F0F0F0;stroke-width:9.72"/>
	<line x1="5215.39" y1="1665.73" x2="5215.39" y2="1600.93" style="stroke:#F0F0F0;stroke-width:9.72"/>
	<line x1="5215.39" y1="1568.53" x2="5215.39" y2="1503.73" style="stroke:#F0F0F0;stroke-width:9.72"/>
	<line x1="5215.39" y1="1471.33" x2="5215.39" y2="1406.53" style="stroke:#F0F0F0;stroke-width:9.72"/>
	<line x1="5215.39" y1="1374.13" x2="5215.39" y2="1309.33" style="stroke:#F0F0F0;stroke-width:9.72"/>
	<line x1="5215.39" y1="1276.93" x2="5215.39" y2="1212.13" style="stroke:#F0F0F0;stroke-width:9.72"/>
	<line x1="5215.39" y1="1179.73" x2="5215.39" y2="1114.93" style="stroke:#F0F0F0;stroke-width:9.72"/>
	<line x1="5215.39" y1="1082.53" x2="5215.39" y2="1017.73" style="stroke:#F0F0F0;stroke-width:9.72"/>
	<line x1="5215.39" y1="985.33" x2="5215.39" y2="920.53" style="stroke:#F0F0F0;stroke-width:9.72"/>
	<line x1="5215.39" y1="888.13" x2="5215.39" y2="823.33" style="stroke:#F0F0F0;stroke-width:9.72"/>
	<line x1="5215.39" y1="790.93" x2="5215.39" y2="726.13" style="stroke:#F0F0F0;stroke-width:9.72"/>
	<line x1="5215.39" y1="693.73" x2="5215.39" y2="628.93" style="stroke:#F0F0F0;stroke-width:9.72"/>
	<line x1="5215.39" y1="596.53" x2="5215.39" y2="573.58" style="stroke:#F0F0F0;stroke-width:9.72"/>
	<path d=" M1029.54 2566.52 L1494.62 2282.68 L1959.69 2012.18 L2424.77 1766.81 L2889.84 1551.99 L3354.92 1369.07 L3819.99 1216.52 L4285.07 1091.81 L4750.14 991.07 L5215.22 911.08" stroke-linejoin="round" style="fill:none;stroke:#1A85FF;stroke-width:9.72"/>
	<circle cx="1029.54" cy="2566.52" r="21.74" style="fill:#1A85FF"/>
	<circle cx="1029.54" cy="2566.52" r="16.88" style="fill:none;stroke:#1A85FF;stroke-width:9.72"/>
	<circle cx="1494.62" cy="2282.68" r="21.74" style="fill:#1A85FF"/>
	<circle cx="1494.62" cy="2282.68" r="16.88" style="fill:none;stroke:#1A85FF;stroke-width:9.72"/>
	<circle cx="1959.69" cy="2012.18" r="21.74" style="fill:#1A85FF"/>
	<circle cx="1959.69" cy="2012.18" r="16.88" style="fill:none;stroke:#1A85FF;stroke-width:9.72"/>
	<circle cx="2424.77" cy="1766.81" r="21.74" style="fill:#1A85FF"/>
	<circle cx="2424.77" cy="1766.81" r="16.88" style="fill:none;stroke:#1A85FF;stroke-width:9.72"/>
	<circle cx="2889.84" cy="1551.99" r="21.74" style="fill:#1A85FF"/>
	<circle cx="2889.84" cy="1551.99" r="16.88" style="fill:none;stroke:#1A85FF;stroke-width:9.72"/>
	<circle cx="3354.92" cy="1369.07" r="21.74" style="fill:#1A85FF"/>
	<circle cx="3354.92" cy="1369.07" r="16.88" style="fill:none;stroke:#1A85FF;stroke-width:9.72"/>
	<circle cx="3819.99" cy="1216.52" r="21.74" style="fill:#1A85FF"/>
	<circle cx="3819.99" cy="1216.52" r="16.88" style="fill:none;stroke:#1A85FF;stroke-width:9.72"/>
	<circle cx="4285.07" cy="1091.81" r="21.74" style="fill:#1A85FF"/>
	<circle cx="4285.07" cy="1091.81" r="16.88" style="fill:none;stroke:#1A85FF;stroke-width:9.72"/>
	<circle cx="4750.14" cy="991.07" r="21.74" style="fill:#1A85FF"/>
	<circle cx="4750.14" cy="991.07" r="16.88" style="fill:none;stroke:#1A85FF;stroke-width:9.72"/>
	<circle cx="5215.22" cy="911.08" r="21.74" style="fill:#1A85FF"/>
	<circle cx="5215.22" cy="911.08" r="16.88" style="fill:none;stroke:#1A85FF;stroke-width:9.72"/>
	<line x1="493.26" y1="2637.73" x2="493.26" y2="573.58" style="stroke:#000000;stroke-width:6.48"/>
	<line x1="493.26" y1="2491.93" x2="448.20" y2="2491.93" style="stroke:#000000;stroke-width:6.48"/>
	<text x="425.76" y="2531.37" style="font-family:'Helvetica';font-size:112.56px;fill:#000000" text-anchor="end">.2</text>
	<line x1="493.26" y1="2030.06" x2="448.20" y2="2030.06" style="stroke:#000000;stroke-width:6.48"/>
	<text x="425.76" y="2069.50" style="font-family:'Helvetica';font-size:112.56px;fill:#000000" text-anchor="end">.4</text>
	<line x1="493.26" y1="1568.36" x2="448.20" y2="1568.36" style="stroke:#000000;stroke-width:6.48"/>
	<text x="425.76" y="1607.80" style="font-family:'Helvetica';font-size:112.56px;fill:#000000" text-anchor="end">.6</text>
	<line x1="493.26" y1="1106.66" x2="448.20" y2="1106.66" style="stroke:#000000;stroke-width:6.48"/>
	<text x="425.76" y="1146.10" style="font-family:'Helvetica';font-size:112.56px;fill:#000000" text-anchor="end">.8</text>
	<line x1="493.26" y1="644.96" x2="448.20" y2="644.96" style="stroke:#000000;stroke-width:6.48"/>
	<text x="425.76" y="684.40" style="font-family:'Helvetica';font-size:112.56px;fill:#000000" text-anchor="end">1</text>
	<text x="214.55" y="1605.66" style="font-family:'Helvetica';font-size:112.56px;fill:#000000" transform="rotate(-90 214.55,1605.66)" text-anchor="middle">Power (1-β)</text>
	<line x1="493.26" y1="2637.73" x2="5286.60" y2="2637.73" style="stroke:#000000;stroke-width:6.48"/>
	<line x1="564.47" y1="2637.73" x2="564.47" y2="2682.79" style="stroke:#000000;stroke-width:6.48"/>
	<text x="564.47" y="2783.94" style="font-family:'Helvetica';font-size:112.56px;fill:#000000" text-anchor="middle">0</text>
	<line x1="1494.62" y1="2637.73" x2="1494.62" y2="2682.79" style="stroke:#000000;stroke-width:6.48"/>
	<text x="1494.62" y="2783.94" style="font-family:'Helvetica';font-size:112.56px;fill:#000000" text-anchor="middle">200</text>
	<line x1="2424.77" y1="2637.73" x2="2424.77" y2="2682.79" style="stroke:#000000;stroke-width:6.48"/>
	<text x="2424.77" y="2783.94" style="font-family:'Helvetica';font-size:112.56px;fill:#000000" text-anchor="middle">400</text>
	<line x1="3354.92" y1="2637.73" x2="3354.92" y2="2682.79" style="stroke:#000000;stroke-width:6.48"/>
	<text x="3354.92" y="2783.94" style="font-family:'Helvetica';font-size:112.56px;fill:#000000" text-anchor="middle">600</text>
	<line x1="4285.07" y1="2637.73" x2="4285.07" y2="2682.79" style="stroke:#000000;stroke-width:6.48"/>
	<text x="4285.07" y="2783.94" style="font-family:'Helvetica';font-size:112.56px;fill:#000000" text-anchor="middle">800</text>
	<line x1="5215.39" y1="2637.73" x2="5215.39" y2="2682.79" style="stroke:#000000;stroke-width:6.48"/>
	<text x="5215.39" y="2783.94" style="font-family:'Helvetica';font-size:112.56px;fill:#000000" text-anchor="middle">1000</text>
	<text x="2889.84" y="2941.38" style="font-family:'Helvetica';font-size:112.56px;fill:#000000" text-anchor="middle">Total sample size (N)</text>
	<text x="512.66" y="3080.13" style="fill:#000000">
		<tspan style="font-family:'Helvetica';font-size:89.94px">Parameters: α = </tspan>
		<tspan style="font-family:'Helvetica';font-size:89.94px">.05</tspan>
		<tspan style="font-family:'Helvetica';font-size:89.94px">, δ = </tspan>
		<tspan style="font-family:'Helvetica';font-size:89.94px">.2</tspan>
		<tspan style="font-family:'Helvetica';font-size:89.94px">, μ</tspan>
		<tspan dy="12.85px" style="font-family:'Helvetica';font-size:52.44px">1</tspan>
		<tspan dy="-12.85px" style="font-family:'Helvetica';font-size:89.94px"> = </tspan>
		<tspan style="font-family:'Helvetica';font-size:89.94px">0</tspan>
		<tspan style="font-family:'Helvetica';font-size:89.94px">, μ</tspan>
		<tspan dy="12.85px" style="font-family:'Helvetica';font-size:52.44px">2</tspan>
		<tspan dy="-12.85px" style="font-family:'Helvetica';font-size:89.94px"> = </tspan>
		<tspan style="font-family:'Helvetica';font-size:89.94px">.2</tspan>
		<tspan style="font-family:'Helvetica';font-size:89.94px">, σ = </tspan>
		<tspan style="font-family:'Helvetica';font-size:89.94px">1</tspan>
	</text>
	<text x="2889.84" y="411.89" style="fill:#000000" text-anchor="middle">
		<tspan style="font-family:'Helvetica';font-style:italic;font-size:123.69px">t</tspan>
		<tspan style="font-family:'Helvetica';font-size:123.69px"> test assuming σ</tspan>
		<tspan dy="17.67px" style="font-family:'Helvetica';font-size:72.11px">1</tspan>
		<tspan dy="-17.67px" style="font-family:'Helvetica';font-size:123.69px"> = σ</tspan>
		<tspan dy="17.67px" style="font-family:'Helvetica';font-size:72.11px">2</tspan>
		<tspan dy="-17.67px" style="font-family:'Helvetica';font-size:123.69px"> = σ</tspan>
	</text>
	<text x="2889.84" y="535.75" style="fill:#000000" text-anchor="middle">
		<tspan style="font-family:'Helvetica';font-size:123.69px">H</tspan>
		<tspan dy="17.67px" style="font-family:'Helvetica';font-size:72.11px">0</tspan>
		<tspan dy="-17.67px" style="font-family:'Helvetica';font-size:123.69px">: μ</tspan>
		<tspan dy="17.67px" style="font-family:'Helvetica';font-size:72.11px">2</tspan>
		<tspan dy="-17.67px" style="font-family:'Helvetica';font-size:123.69px"> = μ</tspan>
		<tspan dy="17.67px" style="font-family:'Helvetica';font-size:72.11px">1</tspan>
		<tspan dy="-17.67px" style="font-family:'Helvetica';font-size:123.69px">  versus  H</tspan>
		<tspan dy="17.67px" style="font-family:'Helvetica';font-size:72.11px">a</tspan>
		<tspan dy="-17.67px" style="font-family:'Helvetica';font-size:123.69px">: μ</tspan>
		<tspan dy="17.67px" style="font-family:'Helvetica';font-size:72.11px">2</tspan>
		<tspan dy="-17.67px" style="font-family:'Helvetica';font-size:123.69px"> ≠ μ</tspan>
		<tspan dy="17.67px" style="font-family:'Helvetica';font-size:72.11px">1</tspan>
	</text>
	<text x="2889.84" y="227.22" style="font-family:'Helvetica';font-size:135.00px;fill:#000000" text-anchor="middle">Estimated power for a two-sample means test</text>
</svg>