<svg xmlns="http://www.w3.org/2000/svg" xmlns:xlink="http://www.w3.org/1999/xlink" version="1.1" width="7.500in" height="4.500in" viewBox="0 0 5400 3240">
	<desc>Stata Graph - Graph</desc>
	<rect x="0" y="0" width="5400" height="3240" style="fill:#FFFFFF;stroke:none"/>
	<rect x="0.00" y="0.00" width="5400.00" height="3240.00" style="fill:#FFFFFF"/>
	<rect x="3.24" y="3.24" width="5393.52" height="3233.52" style="fill:none;stroke:#FFFFFF;stroke-width:6.48"/>
	<rect x="557.04" y="573.58" width="4729.56" height="2064.15" style="fill:#FFFFFF"/>
	<rect x="560.28" y="576.82" width="4723.08" height="2057.67" style="fill:none;stroke:#FFFFFF;stroke-width:6.48"/>
	<line x1="557.04" y1="2471.85" x2="621.84" y2="2471.85" style="stroke:#F0F0F0;stroke-width:9.72"/>
	<line x1="654.24" y1="2471.85" x2="719.04" y2="2471.85" style="stroke:#F0F0F0;stroke-width:9.72"/>
	<line x1="751.44" y1="2471.85" x2="816.24" y2="2471.85" style="stroke:#F0F0F0;stroke-width:9.72"/>
	<line x1="848.64" y1="2471.85" x2="913.44" y2="2471.85" style="stroke:#F0F0F0;stroke-width:9.72"/>
	<line x1="945.84" y1="2471.85" x2="1010.64" y2="2471.85" style="stroke:#F0F0F0;stroke-width:9.72"/>
	<line x1="1043.04" y1="2471.85" x2="1107.84" y2="2471.85" style="stroke:#F0F0F0;stroke-width:9.72"/>
	<line x1="1140.24" y1="2471.85" x2="1205.04" y2="2471.85" style="stroke:#F0F0F0;stroke-width:9.72"/>
	<line x1="1237.44" y1="2471.85" x2="1302.24" y2="2471.85" style="stroke:#F0F0F0;stroke-width:9.72"/>
	<line x1="1334.64" y1="2471.85" x2="1399.44" y2="2471.85" style="stroke:#F0F0F0;stroke-width:9.72"/>
	<line x1="1431.84" y1="2471.85" x2="1496.64" y2="2471.85" style="stroke:#F0F0F0;stroke-width:9.72"/>
	<line x1="1529.04" y1="2471.85" x2="1593.84" y2="2471.85" style="stroke:#F0F0F0;stroke-width:9.72"/>
	<line x1="1626.24" y1="2471.85" x2="1691.04" y2="2471.85" style="stroke:#F0F0F0;stroke-width:9.72"/>
	<line x1="1723.44" y1="2471.85" x2="1788.24" y2="2471.85" style="stroke:#F0F0F0;stroke-width:9.72"/>
	<line x1="1820.64" y1="2471.85" x2="1885.44" y2="2471.85" style="stroke:#F0F0F0;stroke-width:9.72"/>
	<line x1="1917.84" y1="2471.85" x2="1982.64" y2="2471.85" style="stroke:#F0F0F0;stroke-width:9.72"/>
	<line x1="2015.04" y1="2471.85" x2="2079.84" y2="2471.85" style="stroke:#F0F0F0;stroke-width:9.72"/>
	<line x1="2112.24" y1="2471.85" x2="2177.04" y2="2471.85" style="stroke:#F0F0F0;stroke-width:9.72"/>
	<line x1="2209.44" y1="2471.85" x2="2274.24" y2="2471.85" style="stroke:#F0F0F0;stroke-width:9.72"/>
	<line x1="2306.64" y1="2471.85" x2="2371.44" y2="2471.85" style="stroke:#F0F0F0;stroke-width:9.72"/>
	<line x1="2403.84" y1="2471.85" x2="2468.64" y2="2471.85" style="stroke:#F0F0F0;stroke-width:9.72"/>
	<line x1="2501.04" y1="2471.85" x2="2565.84" y2="2471.85" style="stroke:#F0F0F0;stroke-width:9.72"/>
	<line x1="2598.24" y1="2471.85" x2="2663.04" y2="2471.85" style="stroke:#F0F0F0;stroke-width:9.72"/>
	<line x1="2695.44" y1="2471.85" x2="2760.24" y2="2471.85" style="stroke:#F0F0F0;stroke-width:9.72"/>
	<line x1="2792.64" y1="2471.85" x2="2857.44" y2="2471.85" style="stroke:#F0F0F0;stroke-width:9.72"/>
	<line x1="2889.84" y1="2471.85" x2="2954.64" y2="2471.85" style="stroke:#F0F0F0;stroke-width:9.72"/>
	<line x1="2987.04" y1="2471.85" x2="3051.84" y2="2471.85" style="stroke:#F0F0F0;stroke-width:9.72"/>
	<line x1="3084.24" y1="2471.85" x2="3149.04" y2="2471.85" style="stroke:#F0F0F0;stroke-width:9.72"/>
	<line x1="3181.44" y1="2471.85" x2="3246.24" y2="2471.85" style="stroke:#F0F0F0;stroke-width:9.72"/>
	<line x1="3278.64" y1="2471.85" x2="3343.44" y2="2471.85" style="stroke:#F0F0F0;stroke-width:9.72"/>
	<line x1="3375.84" y1="2471.85" x2="3440.64" y2="2471.85" style="stroke:#F0F0F0;stroke-width:9.72"/>
	<line x1="3473.04" y1="2471.85" x2="3537.84" y2="2471.85" style="stroke:#F0F0F0;stroke-width:9.72"/>
	<line x1="3570.24" y1="2471.85" x2="3635.04" y2="2471.85" style="stroke:#F0F0F0;stroke-width:9.72"/>
	<line x1="3667.44" y1="2471.85" x2="3732.24" y2="2471.85" style="stroke:#F0F0F0;stroke-width:9.72"/>
	<line x1="3764.64" y1="2471.85" x2="3829.44" y2="2471.85" style="stroke:#F0F0F0;stroke-width:9.72"/>
	<line x1="3861.84" y1="2471.85" x2="3926.64" y2="2471.85" style="stroke:#F0F0F0;stroke-width:9.72"/>
	<line x1="3959.04" y1="2471.85" x2="4023.84" y2="2471.85" style="stroke:#F0F0F0;stroke-width:9.72"/>
	<line x1="4056.24" y1="2471.85" x2="4121.04" y2="2471.85" style="stroke:#F0F0F0;stroke-width:9.72"/>
	<line x1="4153.44" y1="2471.85" x2="4218.24" y2="2471.85" style="stroke:#F0F0F0;stroke-width:9.72"/>
	<line x1="4250.64" y1="2471.85" x2="4315.44" y2="2471.85" style="stroke:#F0F0F0;stroke-width:9.72"/>
	<line x1="4347.84" y1="2471.85" x2="4412.64" y2="2471.85" style="stroke:#F0F0F0;stroke-width:9.72"/>
	<line x1="4445.04" y1="2471.85" x2="4509.84" y2="2471.85" style="stroke:#F0F0F0;stroke-width:9.72"/>
	<line x1="4542.24" y1="2471.85" x2="4607.04" y2="2471.85" style="stroke:#F0F0F0;stroke-width:9.72"/>
	<line x1="4639.44" y1="2471.85" x2="4704.24" y2="2471.85" style="stroke:#F0F0F0;stroke-width:9.72"/>
	<line x1="4736.64" y1="2471.85" x2="4801.44" y2="2471.85" style="stroke:#F0F0F0;stroke-width:9.72"/>
	<line x1="4833.84" y1="2471.85" x2="4898.64" y2="2471.85" style="stroke:#F0F0F0;stroke-width:9.72"/>
	<line x1="4931.04" y1="2471.85" x2="4995.84" y2="2471.85" style="stroke:#F0F0F0;stroke-width:9.72"/>
	<line x1="5028.24" y1="2471.85" x2="5093.04" y2="2471.85" style="stroke:#F0F0F0;stroke-width:9.72"/>
	<line x1="5125.44" y1="2471.85" x2="5190.24" y2="2471.85" style="stroke:#F0F0F0;stroke-width:9.72"/>
	<line x1="5222.64" y1="2471.85" x2="5286.60" y2="2471.85" style="stroke:#F0F0F0;stroke-width:9.72"/>
	<line x1="557.04" y1="1568.03" x2="621.84" y2="1568.03" style="stroke:#F0F0F0;stroke-width:9.72"/>
	<line x1="654.24" y1="1568.03" x2="719.04" y2="1568.03" style="stroke:#F0F0F0;stroke-width:9.72"/>
	<line x1="751.44" y1="1568.03" x2="816.24" y2="1568.03" style="stroke:#F0F0F0;stroke-width:9.72"/>
	<line x1="848.64" y1="1568.03" x2="913.44" y2="1568.03" style="stroke:#F0F0F0;stroke-width:9.72"/>
	<line x1="945.84" y1="1568.03" x2="1010.64" y2="1568.03" style="stroke:#F0F0F0;stroke-width:9.72"/>
	<line x1="1043.04" y1="1568.03" x2="1107.84" y2="1568.03" style="stroke:#F0F0F0;stroke-width:9.72"/>
	<line x1="1140.24" y1="1568.03" x2="1205.04" y2="1568.03" style="stroke:#F0F0F0;stroke-width:9.72"/>
	<line x1="1237.44" y1="1568.03" x2="1302.24" y2="1568.03" style="stroke:#F0F0F0;stroke-width:9.72"/>
	<line x1="1334.64" y1="1568.03" x2="1399.44" y2="1568.03" style="stroke:#F0F0F0;stroke-width:9.72"/>
	<line x1="1431.84" y1="1568.03" x2="1496.64" y2="1568.03" style="stroke:#F0F0F0;stroke-width:9.72"/>
	<line x1="1529.04" y1="1568.03" x2="1593.84" y2="1568.03" style="stroke:#F0F0F0;stroke-width:9.72"/>
	<line x1="1626.24" y1="1568.03" x2="1691.04" y2="1568.03" style="stroke:#F0F0F0;stroke-width:9.72"/>
	<line x1="1723.44" y1="1568.03" x2="1788.24" y2="1568.03" style="stroke:#F0F0F0;stroke-width:9.72"/>
	<line x1="1820.64" y1="1568.03" x2="1885.44" y2="1568.03" style="stroke:#F0F0F0;stroke-width:9.72"/>
	<line x1="1917.84" y1="1568.03" x2="1982.64" y2="1568.03" style="stroke:#F0F0F0;stroke-width:9.72"/>
	<line x1="2015.04" y1="1568.03" x2="2079.84" y2="1568.03" style="stroke:#F0F0F0;stroke-width:9.72"/>
	<line x1="2112.24" y1="1568.03" x2="2177.04" y2="1568.03" style="stroke:#F0F0F0;stroke-width:9.72"/>
	<line x1="2209.44" y1="1568.03" x2="2274.24" y2="1568.03" style="stroke:#F0F0F0;stroke-width:9.72"/>
	<line x1="2306.64" y1="1568.03" x2="2371.44" y2="1568.03" style="stroke:#F0F0F0;stroke-width:9.72"/>
	<line x1="2403.84" y1="1568.03" x2="2468.64" y2="1568.03" style="stroke:#F0F0F0;stroke-width:9.72"/>
	<line x1="2501.04" y1="1568.03" x2="2565.84" y2="1568.03" style="stroke:#F0F0F0;stroke-width:9.72"/>
	<line x1="2598.24" y1="1568.03" x2="2663.04" y2="1568.03" style="stroke:#F0F0F0;stroke-width:9.72"/>
	<line x1="2695.44" y1="1568.03" x2="2760.24" y2="1568.03" style="stroke:#F0F0F0;stroke-width:9.72"/>
	<line x1="2792.64" y1="1568.03" x2="2857.44" y2="1568.03" style="stroke:#F0F0F0;stroke-width:9.72"/>
	<line x1="2889.84" y1="1568.03" x2="2954.64" y2="1568.03" style="stroke:#F0F0F0;stroke-width:9.72"/>
	<line x1="2987.04" y1="1568.03" x2="3051.84" y2="1568.03" style="stroke:#F0F0F0;stroke-width:9.72"/>
	<line x1="3084.24" y1="1568.03" x2="3149.04" y2="1568.03" style="stroke:#F0F0F0;stroke-width:9.72"/>
	<line x1="3181.44" y1="1568.03" x2="3246.24" y2="1568.03" style="stroke:#F0F0F0;stroke-width:9.72"/>
	<line x1="3278.64" y1="1568.03" x2="3343.44" y2="1568.03" style="stroke:#F0F0F0;stroke-width:9.72"/>
	<line x1="3375.84" y1="1568.03" x2="3440.64" y2="1568.03" style="stroke:#F0F0F0;stroke-width:9.72"/>
	<line x1="3473.04" y1="1568.03" x2="3537.84" y2="1568.03" style="stroke:#F0F0F0;stroke-width:9.72"/>
	<line x1="3570.24" y1="1568.03" x2="3635.04" y2="1568.03" style="stroke:#F0F0F0;stroke-width:9.72"/>
	<line x1="3667.44" y1="1568.03" x2="3732.24" y2="1568.03" style="stroke:#F0F0F0;stroke-width:9.72"/>
	<line x1="3764.64" y1="1568.03" x2="3829.44" y2="1568.03" style="stroke:#F0F0F0;stroke-width:9.72"/>
	<line x1="3861.84" y1="1568.03" x2="3926.64" y2="1568.03" style="stroke:#F0F0F0;stroke-width:9.72"/>
	<line x1="3959.04" y1="1568.03" x2="4023.84" y2="1568.03" style="stroke:#F0F0F0;stroke-width:9.72"/>
	<line x1="4056.24" y1="1568.03" x2="4121.04" y2="1568.03" style="stroke:#F0F0F0;stroke-width:9.72"/>
	<line x1="4153.44" y1="1568.03" x2="4218.24" y2="1568.03" style="stroke:#F0F0F0;stroke-width:9.72"/>
	<line x1="4250.64" y1="1568.03" x2="4315.44" y2="1568.03" style="stroke:#F0F0F0;stroke-width:9.72"/>
	<line x1="4347.84" y1="1568.03" x2="4412.64" y2="1568.03" style="stroke:#F0F0F0;stroke-width:9.72"/>
	<line x1="4445.04" y1="1568.03" x2="4509.84" y2="1568.03" style="stroke:#F0F0F0;stroke-width:9.72"/>
	<line x1="4542.24" y1="1568.03" x2="4607.04" y2="1568.03" style="stroke:#F0F0F0;stroke-width:9.72"/>
	<line x1="4639.44" y1="1568.03" x2="4704.24" y2="1568.03" style="stroke:#F0F0F0;stroke-width:9.72"/>
	<line x1="4736.64" y1="1568.03" x2="4801.44" y2="1568.03" style="stroke:#F0F0F0;stroke-width:9.72"/>
	<line x1="4833.84" y1="1568.03" x2="4898.64" y2="1568.03" style="stroke:#F0F0F0;stroke-width:9.72"/>
	<line x1="4931.04" y1="1568.03" x2="4995.84" y2="1568.03" style="stroke:#F0F0F0;stroke-width:9.72"/>
	<line x1="5028.24" y1="1568.03" x2="5093.04" y2="1568.03" style="stroke:#F0F0F0;stroke-width:9.72"/>
	<line x1="5125.44" y1="1568.03" x2="5190.24" y2="1568.03" style="stroke:#F0F0F0;stroke-width:9.72"/>
	<line x1="5222.64" y1="1568.03" x2="5286.60" y2="1568.03" style="stroke:#F0F0F0;stroke-width:9.72"/>
	<line x1="557.04" y1="664.20" x2="621.84" y2="664.20" style="stroke:#F0F0F0;stroke-width:9.72"/>
	<line x1="654.24" y1="664.20" x2="719.04" y2="664.20" style="stroke:#F0F0F0;stroke-width:9.72"/>
	<line x1="751.44" y1="664.20" x2="816.24" y2="664.20" style="stroke:#F0F0F0;stroke-width:9.72"/>
	<line x1="848.64" y1="664.20" x2="913.44" y2="664.20" style="stroke:#F0F0F0;stroke-width:9.72"/>
	<line x1="945.84" y1="664.20" x2="1010.64" y2="664.20" style="stroke:#F0F0F0;stroke-width:9.72"/>
	<line x1="1043.04" y1="664.20" x2="1107.84" y2="664.20" style="stroke:#F0F0F0;stroke-width:9.72"/>
	<line x1="1140.24" y1="664.20" x2="1205.04" y2="664.20" style="stroke:#F0F0F0;stroke-width:9.72"/>
	<line x1="1237.44" y1="664.20" x2="1302.24" y2="664.20" style="stroke:#F0F0F0;stroke-width:9.72"/>
	<line x1="1334.64" y1="664.20" x2="1399.44" y2="664.20" style="stroke:#F0F0F0;stroke-width:9.72"/>
	<line x1="1431.84" y1="664.20" x2="1496.64" y2="664.20" style="stroke:#F0F0F0;stroke-width:9.72"/>
	<line x1="1529.04" y1="664.20" x2="1593.84" y2="664.20" style="stroke:#F0F0F0;stroke-width:9.72"/>
	<line x1="1626.24" y1="664.20" x2="1691.04" y2="664.20" style="stroke:#F0F0F0;stroke-width:9.72"/>
	<line x1="1723.44" y1="664.20" x2="1788.24" y2="664.20" style="stroke:#F0F0F0;stroke-width:9.72"/>
	<line x1="1820.64" y1="664.20" x2="1885.44" y2="664.20" style="stroke:#F0F0F0;stroke-width:9.72"/>
	<line x1="1917.84" y1="664.20" x2="1982.64" y2="664.20" style="stroke:#F0F0F0;stroke-width:9.72"/>
	<line x1="2015.04" y1="664.20" x2="2079.84" y2="664.20" style="stroke:#F0F0F0;stroke-width:9.72"/>
	<line x1="2112.24" y1="664.20" x2="2177.04" y2="664.20" style="stroke:#F0F0F0;stroke-width:9.72"/>
	<line x1="2209.44" y1="664.20" x2="2274.24" y2="664.20" style="stroke:#F0F0F0;stroke-width:9.72"/>
	<line x1="2306.64" y1="664.20" x2="2371.44" y2="664.20" style="stroke:#F0F0F0;stroke-width:9.72"/>
	<line x1="2403.84" y1="664.20" x2="2468.64" y2="664.20" style="stroke:#F0F0F0;stroke-width:9.72"/>
	<line x1="2501.04" y1="664.20" x2="2565.84" y2="664.20" style="stroke:#F0F0F0;stroke-width:9.72"/>
	<line x1="2598.24" y1="664.20" x2="2663.04" y2="664.20" style="stroke:#F0F0F0;stroke-width:9.72"/>
	<line x1="2695.44" y1="664.20" x2="2760.24" y2="664.20" style="stroke:#F0F0F0;stroke-width:9.72"/>
	<line x1="2792.64" y1="664.20" x2="2857.44" y2="664.20" style="stroke:#F0F0F0;stroke-width:9.72"/>
	<line x1="2889.84" y1="664.20" x2="2954.64" y2="664.20" style="stroke:#F0F0F0;stroke-width:9.72"/>
	<line x1="2987.04" y1="664.20" x2="3051.84" y2="664.20" style="stroke:#F0F0F0;stroke-width:9.72"/>
	<line x1="3084.24" y1="664.20" x2="3149.04" y2="664.20" style="stroke:#F0F0F0;stroke-width:9.72"/>
	<line x1="3181.44" y1="664.20" x2="3246.24" y2="664.20" style="stroke:#F0F0F0;stroke-width:9.72"/>
	<line x1="3278.64" y1="664.20" x2="3343.44" y2="664.20" style="stroke:#F0F0F0;stroke-width:9.72"/>
	<line x1="3375.84" y1="664.20" x2="3440.64" y2="664.20" style="stroke:#F0F0F0;stroke-width:9.72"/>
	<line x1="3473.04" y1="664.20" x2="3537.84" y2="664.20" style="stroke:#F0F0F0;stroke-width:9.72"/>
	<line x1="3570.24" y1="664.20" x2="3635.04" y2="664.20" style="stroke:#F0F0F0;stroke-width:9.72"/>
	<line x1="3667.44" y1="664.20" x2="3732.24" y2="664.20" style="stroke:#F0F0F0;stroke-width:9.72"/>
	<line x1="3764.64" y1="664.20" x2="3829.44" y2="664.20" style="stroke:#F0F0F0;stroke-width:9.72"/>
	<line x1="3861.84" y1="664.20" x2="3926.64" y2="664.20" style="stroke:#F0F0F0;stroke-width:9.72"/>
	<line x1="3959.04" y1="664.20" x2="4023.84" y2="664.20" style="stroke:#F0F0F0;stroke-width:9.72"/>
	<line x1="4056.24" y1="664.20" x2="4121.04" y2="664.20" style="stroke:#F0F0F0;stroke-width:9.72"/>
	<line x1="4153.44" y1="664.20" x2="4218.24" y2="664.20" style="stroke:#F0F0F0;stroke-width:9.72"/>
	<line x1="4250.64" y1="664.20" x2="4315.44" y2="664.20" style="stroke:#F0F0F0;stroke-width:9.72"/>
	<line x1="4347.84" y1="664.20" x2="4412.64" y2="664.20" style="stroke:#F0F0F0;stroke-width:9.72"/>
	<line x1="4445.04" y1="664.20" x2="4509.84" y2="664.20" style="stroke:#F0F0F0;stroke-width:9.72"/>
	<line x1="4542.24" y1="664.20" x2="4607.04" y2="664.20" style="stroke:#F0F0F0;stroke-width:9.72"/>
	<line x1="4639.44" y1="664.20" x2="4704.24" y2="664.20" style="stroke:#F0F0F0;stroke-width:9.72"/>
	<line x1="4736.64" y1="664.20" x2="4801.44" y2="664.20" style="stroke:#F0F0F0;stroke-width:9.72"/>
	<line x1="4833.84" y1="664.20" x2="4898.64" y2="664.20" style="stroke:#F0F0F0;stroke-width:9.72"/>
	<line x1="4931.04" y1="664.20" x2="4995.84" y2="664.20" style="stroke:#F0F0F0;stroke-width:9.72"/>
	<line x1="5028.24" y1="664.20" x2="5093.04" y2="664.20" style="stroke:#F0F0F0;stroke-width:9.72"/>
	<line x1="5125.44" y1="664.20" x2="5190.24" y2="664.20" style="stroke:#F0F0F0;stroke-width:9.72"/>
	<line x1="5222.64" y1="664.20" x2="5286.60" y2="664.20" style="stroke:#F0F0F0;stroke-width:9.72"/>
	<line x1="628.26" y1="2637.73" x2="628.26" y2="2572.93" style="stroke:#F0F0F0;stroke-width:9.72"/>
	<line x1="628.26" y1="2540.53" x2="628.26" y2="2475.73" style="stroke:#F0F0F0;stroke-width:9.72"/>
	<line x1="628.26" y1="2443.33" x2="628.26" y2="2378.53" style="stroke:#F0F0F0;stroke-width:9.72"/>
	<line x1="628.26" y1="2346.13" x2="628.26" y2="2281.33" style="stroke:#F0F0F0;stroke-width:9.72"/>
	<line x1="628.26" y1="2248.93" x2="628.26" y2="2184.13" style="stroke:#F0F0F0;stroke-width:9.72"/>
	<line x1="628.26" y1="2151.73" x2="628.26" y2="2086.93" style="stroke:#F0F0F0;stroke-width:9.72"/>
	<line x1="628.26" y1="2054.53" x2="628.26" y2="1989.73" style="stroke:#F0F0F0;stroke-width:9.72"/>
	<line x1="628.26" y1="1957.33" x2="628.26" y2="1892.53" style="stroke:#F0F0F0;stroke-width:9.72"/>
	<line x1="628.26" y1="1860.13" x2="628.26" y2="1795.33" style="stroke:#F0F0F0;stroke-width:9.72"/>
	<line x1="628.26" y1="1762.93" x2="628.26" y2="1698.13" style="stroke:#F0F0F0;stroke-width:9.72"/>
	<line x1="628.26" y1="1665.73" x2="628.26" y2="1600.93" style="stroke:#F0F0F0;stroke-width:9.72"/>
	<line x1="628.26" y1="1568.53" x2="628.26" y2="1503.73" style="stroke:#F0F0F0;stroke-width:9.72"/>
	<line x1="628.26" y1="1471.33" x2="628.26" y2="1406.53" style="stroke:#F0F0F0;stroke-width:9.72"/>
	<line x1="628.26" y1="1374.13" x2="628.26" y2="1309.33" style="stroke:#F0F0F0;stroke-width:9.72"/>
	<line x1="628.26" y1="1276.93" x2="628.26" y2="1212.13" style="stroke:#F0F0F0;stroke-width:9.72"/>
	<line x1="628.26" y1="1179.73" x2="628.26" y2="1114.93" style="stroke:#F0F0F0;stroke-width:9.72"/>
	<line x1="628.26" y1="1082.53" x2="628.26" y2="1017.73" style="stroke:#F0F0F0;stroke-width:9.72"/>
	<line x1="628.26" y1="985.33" x2="628.26" y2="920.53" style="stroke:#F0F0F0;stroke-width:9.72"/>
	<line x1="628.26" y1="888.13" x2="628.26" y2="823.33" style="stroke:#F0F0F0;stroke-width:9.72"/>
	<line x1="628.26" y1="790.93" x2="628.26" y2="726.13" style="stroke:#F0F0F0;stroke-width:9.72"/>
	<line x1="628.26" y1="693.73" x2="628.26" y2="628.93" style="stroke:#F0F0F0;stroke-width:9.72"/>
	<line x1="628.26" y1="596.53" x2="628.26" y2="573.58" style="stroke:#F0F0F0;stroke-width:9.72"/>
	<line x1="1775.08" y1="2637.73" x2="1775.08" y2="2572.93" style="stroke:#F0F0F0;stroke-width:9.72"/>
	<line x1="1775.08" y1="2540.53" x2="1775.08" y2="2475.73" style="stroke:#F0F0F0;stroke-width:9.72"/>
	<line x1="1775.08" y1="2443.33" x2="1775.08" y2="2378.53" style="stroke:#F0F0F0;stroke-width:9.72"/>
	<line x1="1775.08" y1="2346.13" x2="1775.08" y2="2281.33" style="stroke:#F0F0F0;stroke-width:9.72"/>
	<line x1="1775.08" y1="2248.93" x2="1775.08" y2="2184.13" style="stroke:#F0F0F0;stroke-width:9.72"/>
	<line x1="1775.08" y1="2151.73" x2="1775.08" y2="2086.93" style="stroke:#F0F0F0;stroke-width:9.72"/>
	<line x1="1775.08" y1="2054.53" x2="1775.08" y2="1989.73" style="stroke:#F0F0F0;stroke-width:9.72"/>
	<line x1="1775.08" y1="1957.33" x2="1775.08" y2="1892.53" style="stroke:#F0F0F0;stroke-width:9.72"/>
	<line x1="1775.08" y1="1860.13" x2="1775.08" y2="1795.33" style="stroke:#F0F0F0;stroke-width:9.72"/>
	<line x1="1775.08" y1="1762.93" x2="1775.08" y2="1698.13" style="stroke:#F0F0F0;stroke-width:9.72"/>
	<line x1="1775.08" y1="1665.73" x2="1775.08" y2="1600.93" style="stroke:#F0F0F0;stroke-width:9.72"/>
	<line x1="1775.08" y1="1568.53" x2="1775.08" y2="1503.73" style="stroke:#F0F0F0;stroke-width:9.72"/>
	<line x1="1775.08" y1="1471.33" x2="1775.08" y2="1406.53" style="stroke:#F0F0F0;stroke-width:9.72"/>
	<line x1="1775.08" y1="1374.13" x2="1775.08" y2="1309.33" style="stroke:#F0F0F0;stroke-width:9.72"/>
	<line x1="1775.08" y1="1276.93" x2="1775.08" y2="1212.13" style="stroke:#F0F0F0;stroke-width:9.72"/>
	<line x1="1775.08" y1="1179.73" x2="1775.08" y2="1114.93" style="stroke:#F0F0F0;stroke-width:9.72"/>
	<line x1="1775.08" y1="1082.53" x2="1775.08" y2="1017.73" style="stroke:#F0F0F0;stroke-width:9.72"/>
	<line x1="1775.08" y1="985.33" x2="1775.08" y2="920.53" style="stroke:#F0F0F0;stroke-width:9.72"/>
	<line x1="1775.08" y1="888.13" x2="1775.08" y2="823.33" style="stroke:#F0F0F0;stroke-width:9.72"/>
	<line x1="1775.08" y1="790.93" x2="1775.08" y2="726.13" style="stroke:#F0F0F0;stroke-width:9.72"/>
	<line x1="1775.08" y1="693.73" x2="1775.08" y2="628.93" style="stroke:#F0F0F0;stroke-width:9.72"/>
	<line x1="1775.08" y1="596.53" x2="1775.08" y2="573.58" style="stroke:#F0F0F0;stroke-width:9.72"/>
	<line x1="2921.74" y1="2637.73" x2="2921.74" y2="2572.93" style="stroke:#F0F0F0;stroke-width:9.72"/>
	<line x1="2921.74" y1="2540.53" x2="2921.74" y2="2475.73" style="stroke:#F0F0F0;stroke-width:9.72"/>
	<line x1="2921.74" y1="2443.33" x2="2921.74" y2="2378.53" style="stroke:#F0F0F0;stroke-width:9.72"/>
	<line x1="2921.74" y1="2346.13" x2="2921.74" y2="2281.33" style="stroke:#F0F0F0;stroke-width:9.72"/>
	<line x1="2921.74" y1="2248.93" x2="2921.74" y2="2184.13" style="stroke:#F0F0F0;stroke-width:9.72"/>
	<line x1="2921.74" y1="2151.73" x2="2921.74" y2="2086.93" style="stroke:#F0F0F0;stroke-width:9.72"/>
	<line x1="2921.74" y1="2054.53" x2="2921.74" y2="1989.73" style="stroke:#F0F0F0;stroke-width:9.72"/>
	<line x1="2921.74" y1="1957.33" x2="2921.74" y2="1892.53" style="stroke:#F0F0F0;stroke-width:9.72"/>
	<line x1="2921.74" y1="1860.13" x2="2921.74" y2="1795.33" style="stroke:#F0F0F0;stroke-width:9.72"/>
	<line x1="2921.74" y1="1762.93" x2="2921.74" y2="1698.13" style="stroke:#F0F0F0;stroke-width:9.72"/>
	<line x1="2921.74" y1="1665.73" x2="2921.74" y2="1600.93" style="stroke:#F0F0F0;stroke-width:9.72"/>
	<line x1="2921.74" y1="1568.53" x2="2921.74" y2="1503.73" style="stroke:#F0F0F0;stroke-width:9.72"/>
	<line x1="2921.74" y1="1471.33" x2="2921.74" y2="1406.53" style="stroke:#F0F0F0;stroke-width:9.72"/>
	<line x1="2921.74" y1="1374.13" x2="2921.74" y2="1309.33" style="stroke:#F0F0F0;stroke-width:9.72"/>
	<line x1="2921.74" y1="1276.93" x2="2921.74" y2="1212.13" style="stroke:#F0F0F0;stroke-width:9.72"/>
	<line x1="2921.74" y1="1179.73" x2="2921.74" y2="1114.93" style="stroke:#F0F0F0;stroke-width:9.72"/>
	<line x1="2921.74" y1="1082.53" x2="2921.74" y2="1017.73" style="stroke:#F0F0F0;stroke-width:9.72"/>
	<line x1="2921.74" y1="985.33" x2="2921.74" y2="920.53" style="stroke:#F0F0F0;stroke-width:9.72"/>
	<line x1="2921.74" y1="888.13" x2="2921.74" y2="823.33" style="stroke:#F0F0F0;stroke-width:9.72"/>
	<line x1="2921.74" y1="790.93" x2="2921.74" y2="726.13" style="stroke:#F0F0F0;stroke-width:9.72"/>
	<line x1="2921.74" y1="693.73" x2="2921.74" y2="628.93" style="stroke:#F0F0F0;stroke-width:9.72"/>
	<line x1="2921.74" y1="596.53" x2="2921.74" y2="573.58" style="stroke:#F0F0F0;stroke-width:9.72"/>
	<line x1="4068.56" y1="2637.73" x2="4068.56" y2="2572.93" style="stroke:#F0F0F0;stroke-width:9.72"/>
	<line x1="4068.56" y1="2540.53" x2="4068.56" y2="2475.73" style="stroke:#F0F0F0;stroke-width:9.72"/>
	<line x1="4068.56" y1="2443.33" x2="4068.56" y2="2378.53" style="stroke:#F0F0F0;stroke-width:9.72"/>
	<line x1="4068.56" y1="2346.13" x2="4068.56" y2="2281.33" style="stroke:#F0F0F0;stroke-width:9.72"/>
	<line x1="4068.56" y1="2248.93" x2="4068.56" y2="2184.13" style="stroke:#F0F0F0;stroke-width:9.72"/>
	<line x1="4068.56" y1="2151.73" x2="4068.56" y2="2086.93" style="stroke:#F0F0F0;stroke-width:9.72"/>
	<line x1="4068.56" y1="2054.53" x2="4068.56" y2="1989.73" style="stroke:#F0F0F0;stroke-width:9.72"/>
	<line x1="4068.56" y1="1957.33" x2="4068.56" y2="1892.53" style="stroke:#F0F0F0;stroke-width:9.72"/>
	<line x1="4068.56" y1="1860.13" x2="4068.56" y2="1795.33" style="stroke:#F0F0F0;stroke-width:9.72"/>
	<line x1="4068.56" y1="1762.93" x2="4068.56" y2="1698.13" style="stroke:#F0F0F0;stroke-width:9.72"/>
	<line x1="4068.56" y1="1665.73" x2="4068.56" y2="1600.93" style="stroke:#F0F0F0;stroke-width:9.72"/>
	<line x1="4068.56" y1="1568.53" x2="4068.56" y2="1503.73" style="stroke:#F0F0F0;stroke-width:9.72"/>
	<line x1="4068.56" y1="1471.33" x2="4068.56" y2="1406.53" style="stroke:#F0F0F0;stroke-width:9.72"/>
	<line x1="4068.56" y1="1374.13" x2="4068.56" y2="1309.33" style="stroke:#F0F0F0;stroke-width:9.72"/>
	<line x1="4068.56" y1="1276.93" x2="4068.56" y2="1212.13" style="stroke:#F0F0F0;stroke-width:9.72"/>
	<line x1="4068.56" y1="1179.73" x2="4068.56" y2="1114.93" style="stroke:#F0F0F0;stroke-width:9.72"/>
	<line x1="4068.56" y1="1082.53" x2="4068.56" y2="1017.73" style="stroke:#F0F0F0;stroke-width:9.72"/>
	<line x1="4068.56" y1="985.33" x2="4068.56" y2="920.53" style="stroke:#F0F0F0;stroke-width:9.72"/>
	<line x1="4068.56" y1="888.13" x2="4068.56" y2="823.33" style="stroke:#F0F0F0;stroke-width:9.72"/>
	<line x1="4068.56" y1="790.93" x2="4068.56" y2="726.13" style="stroke:#F0F0F0;stroke-width:9.72"/>
	<line x1="4068.56" y1="693.73" x2="4068.56" y2="628.93" style="stroke:#F0F0F0;stroke-width:9.72"/>
	<line x1="4068.56" y1="596.53" x2="4068.56" y2="573.58" style="stroke:#F0F0F0;stroke-width:9.72"/>
	<line x1="5215.39" y1="2637.73" x2="5215.39" y2="2572.93" style="stroke:#F0F0F0;stroke-width:9.72"/>
	<line x1="5215.39" y1="2540.53" x2="5215.39" y2="2475.73" style="stroke:#F0F0F0;stroke-width:9.72"/>
	<line x1="5215.39" y1="2443.33" x2="5215.39" y2="2378.53" style="stroke:#F0F0F0;stroke-width:9.72"/>
	<line x1="5215.39" y1="2346.13" x2="5215.39" y2="2281.33" style="stroke:#F0F0F0;stroke-width:9.72"/>
	<line x1="5215.39" y1="2248.93" x2="5215.39" y2="2184.13" style="stroke:#F0F0F0;stroke-width:9.72"/>
	<line x1="5215.39" y1="2151.73" x2="5215.39" y2="2086.93" style="stroke:#F0F0F0;stroke-width:9.72"/>
	<line x1="5215.39" y1="2054.53" x2="5215.39" y2="1989.73" style="stroke:#F0F0F0;stroke-width:9.72"/>
	<line x1="5215.39" y1="1957.33" x2="5215.39" y2="1892.53" style="stroke:#F0F0F0;stroke-width:9.72"/>
	<line x1="5215.39" y1="1860.13" x2="5215.39" y2="1795.33" style="stroke:#F0F0F0;stroke-width:9.72"/>
	<line x1="5215.39" y1="1762.93" x2="5215.39" y2="1698.13" style="stroke:#F0F0F0;stroke-width:9.72"/>
	<line x1="5215.39" y1="1665.73" x2="5215.39" y2="1600.93" style="stroke:#F0F0F0;stroke-width:9.72"/>
	<line x1="5215.39" y1="1568.53" x2="5215.39" y2="1503.73" style="stroke:#F0F0F0;stroke-width:9.72"/>
	<line x1="5215.39" y1="1471.33" x2="5215.39" y2="1406.53" style="stroke:#F0F0F0;stroke-width:9.72"/>
	<line x1="5215.39" y1="1374.13" x2="5215.39" y2="1309.33" style="stroke:#F0F0F0;stroke-width:9.72"/>
	<line x1="5215.39" y1="1276.93" x2="5215.39" y2="1212.13" style="stroke:#F0F0F0;stroke-width:9.72"/>
	<line x1="5215.39" y1="1179.73" x2="5215.39" y2="1114.93" style="stroke:#F0F0F0;stroke-width:9.72"/>
	<line x1="5215.39" y1="1082.53" x2="5215.39" y2="1017.73" style="stroke:#F0F0F0;stroke-width:9.72"/>
	<line x1="5215.39" y1="985.33" x2="5215.39" y2="920.53" style="stroke:#F0F0F0;stroke-width:9.72"/>
	<line x1="5215.39" y1="888.13" x2="5215.39" y2="823.33" style="stroke:#F0F0F0;stroke-width:9.72"/>
	<line x1="5215.39" y1="790.93" x2="5215.39" y2="726.13" style="stroke:#F0F0F0;stroke-width:9.72"/>
	<line x1="5215.39" y1="693.73" x2="5215.39" y2="628.93" style="stroke:#F0F0F0;stroke-width:9.72"/>
	<line x1="5215.39" y1="596.53" x2="5215.39" y2="573.58" style="stroke:#F0F0F0;stroke-width:9.72"/>
	<path d=" M628.26 644.96 L1774.91 1480.28 L2921.74 1977.41 L4068.39 2316.43 L5215.22 2566.52" stroke-linejoin="round" style="fill:none;stroke:#1A85FF;stroke-width:9.72"/>
	<circle cx="628.26" cy="644.96" r="21.74" style="fill:#1A85FF"/>
	<circle cx="628.26" cy="644.96" r="16.88" style="fill:none;stroke:#1A85FF;stroke-width:9.72"/>
	<circle cx="1774.91" cy="1480.28" r="21.74" style="fill:#1A85FF"/>
	<circle cx="1774.91" cy="1480.28" r="16.88" style="fill:none;stroke:#1A85FF;stroke-width:9.72"/>
	<circle cx="2921.74" cy="1977.41" r="21.74" style="fill:#1A85FF"/>
	<circle cx="2921.74" cy="1977.41" r="16.88" style="fill:none;stroke:#1A85FF;stroke-width:9.72"/>
	<circle cx="4068.39" cy="2316.43" r="21.74" style="fill:#1A85FF"/>
	<circle cx="4068.39" cy="2316.43" r="16.88" style="fill:none;stroke:#1A85FF;stroke-width:9.72"/>
	<circle cx="5215.22" cy="2566.52" r="21.74" style="fill:#1A85FF"/>
	<circle cx="5215.22" cy="2566.52" r="16.88" style="fill:none;stroke:#1A85FF;stroke-width:9.72"/>
	<line x1="557.04" y1="2637.73" x2="557.04" y2="573.58" style="stroke:#000000;stroke-width:6.48"/>
	<line x1="557.04" y1="2471.85" x2="511.99" y2="2471.85" style="stroke:#000000;stroke-width:6.48"/>
	<text x="489.54" y="2511.29" style="font-family:'Helvetica';font-size:112.56px;fill:#000000" text-anchor="end">.15</text>
	<line x1="557.04" y1="1568.03" x2="511.99" y2="1568.03" style="stroke:#000000;stroke-width:6.48"/>
	<text x="489.54" y="1607.46" style="font-family:'Helvetica';font-size:112.56px;fill:#000000" text-anchor="end">.2</text>
	<line x1="557.04" y1="664.20" x2="511.99" y2="664.20" style="stroke:#000000;stroke-width:6.48"/>
	<text x="489.54" y="703.64" style="font-family:'Helvetica';font-size:112.56px;fill:#000000" text-anchor="end">.25</text>
	<text x="214.55" y="1605.66" style="fill:#000000" transform="rotate(-90 214.55,1605.66)" text-anchor="middle">
		<tspan style="font-family:'Helvetica';font-size:112.56px">Experimental-group mean (μ</tspan>
		<tspan dy="16.08px" style="font-family:'Helvetica';font-size:65.62px">2</tspan>
		<tspan dy="-16.08px" style="font-family:'Helvetica';font-size:112.56px">)</tspan>
	</text>
	<line x1="557.04" y1="2637.73" x2="5286.60" y2="2637.73" style="stroke:#000000;stroke-width:6.48"/>
	<line x1="628.26" y1="2637.73" x2="628.26" y2="2682.79" style="stroke:#000000;stroke-width:6.48"/>
	<text x="628.26" y="2783.94" style="font-family:'Helvetica';font-size:112.56px;fill:#000000" text-anchor="middle">500</text>
	<line x1="1775.08" y1="2637.73" x2="1775.08" y2="2682.79" style="stroke:#000000;stroke-width:6.48"/>
	<text x="1775.08" y="2783.94" style="font-family:'Helvetica';font-size:112.56px;fill:#000000" text-anchor="middle">750</text>
	<line x1="2921.74" y1="2637.73" x2="2921.74" y2="2682.79" style="stroke:#000000;stroke-width:6.48"/>
	<text x="2921.74" y="2783.94" style="font-family:'Helvetica';font-size:112.56px;fill:#000000" text-anchor="middle">1000</text>
	<line x1="4068.56" y1="2637.73" x2="4068.56" y2="2682.79" style="stroke:#000000;stroke-width:6.48"/>
	<text x="4068.56" y="2783.94" style="font-family:'Helvetica';font-size:112.56px;fill:#000000" text-anchor="middle">1250</text>
	<line x1="5215.39" y1="2637.73" x2="5215.39" y2="2682.79" style="stroke:#000000;stroke-width:6.48"/>
	<text x="5215.39" y="2783.94" style="font-family:'Helvetica';font-size:112.56px;fill:#000000" text-anchor="middle">1500</text>
	<text x="2921.74" y="2941.38" style="font-family:'Helvetica';font-size:112.56px;fill:#000000" text-anchor="middle">Total sample size (N)</text>
	<text x="576.45" y="3080.13" style="fill:#000000">
		<tspan style="font-family:'Helvetica';font-size:89.94px">Parameters: α = </tspan>
		<tspan style="font-family:'Helvetica';font-size:89.94px">.05</tspan>
		<tspan style="font-family:'Helvetica';font-size:89.94px">, 1-β = </tspan>
		<tspan style="font-family:'Helvetica';font-size:89.94px">.8</tspan>
		<tspan style="font-family:'Helvetica';font-size:89.94px">, μ</tspan>
		<tspan dy="12.85px" style="font-family:'Helvetica';font-size:52.44px">1</tspan>
		<tspan dy="-12.85px" style="font-family:'Helvetica';font-size:89.94px"> = </tspan>
		<tspan style="font-family:'Helvetica';font-size:89.94px">0</tspan>
		<tspan style="font-family:'Helvetica';font-size:89.94px">, σ = </tspan>
		<tspan style="font-family:'Helvetica';font-size:89.94px">1</tspan>
	</text>
	<text x="2921.74" y="411.89" style="fill:#000000" text-anchor="middle">
		<tspan style="font-family:'Helvetica';font-style:italic;font-size:123.69px">t</tspan>
		<tspan style="font-family:'Helvetica';font-size:123.69px"> test assuming σ</tspan>
		<tspan dy="17.67px" style="font-family:'Helvetica';font-size:72.11px">1</tspan>
		<tspan dy="-17.67px" style="font-family:'Helvetica';font-size:123.69px"> = σ</tspan>
		<tspan dy="17.67px" style="font-family:'Helvetica';font-size:72.11px">2</tspan>
		<tspan dy="-17.67px" style="font-family:'Helvetica';font-size:123.69px"> = σ</tspan>
	</text>
	<text x="2921.74" y="535.75" style="fill:#000000" text-anchor="middle">
		<tspan style="font-family:'Helvetica';font-size:123.69px">H</tspan>
		<tspan dy="17.67px" style="font-family:'Helvetica';font-size:72.11px">0</tspan>
		<tspan dy="-17.67px" style="font-family:'Helvetica';font-size:123.69px">: μ</tspan>
		<tspan dy="17.67px" style="font-family:'Helvetica';font-size:72.11px">2</tspan>
		<tspan dy="-17.67px" style="font-family:'Helvetica';font-size:123.69px"> = μ</tspan>
		<tspan dy="17.67px" style="font-family:'Helvetica';font-size:72.11px">1</tspan>
		<tspan dy="-17.67px" style="font-family:'Helvetica';font-size:123.69px">  versus  H</tspan>
		<tspan dy="17.67px" style="font-family:'Helvetica';font-size:72.11px">a</tspan>
		<tspan dy="-17.67px" style="font-family:'Helvetica';font-size:123.69px">: μ</tspan>
		<tspan dy="17.67px" style="font-family:'Helvetica';font-size:72.11px">2</tspan>
		<tspan dy="-17.67px" style="font-family:'Helvetica';font-size:123.69px"> ≠ μ</tspan>
		<tspan dy="17.67px" style="font-family:'Helvetica';font-size:72.11px">1</tspan>
		<tspan dy="-17.67px" style="font-family:'Helvetica';font-size:123.69px">; μ</tspan>
		<tspan dy="17.67px" style="font-family:'Helvetica';font-size:72.11px">2</tspan>
		<tspan dy="-17.67px" style="font-family:'Helvetica';font-size:123.69px"> &gt; μ</tspan>
		<tspan dy="17.67px" style="font-family:'Helvetica';font-size:72.11px">1</tspan>
	</text>
	<text x="2921.74" y="227.22" style="font-family:'Helvetica';font-size:135.00px;fill:#000000" text-anchor="middle">Estimated experimental-group mean for a two-sample means test</text>
</svg>